<?xml version="1.0" encoding="UTF-8" standalone="no"?>
<!DOCTYPE svg PUBLIC "-//W3C//DTD SVG 1.1//EN"
 "http://www.w3.org/Graphics/SVG/1.1/DTD/svg11.dtd">
<!-- Generated by graphviz version 14.1.3 (20260303.0454)
 -->
<!-- Title: org.xvm.asm.constants.ConditionalConstant.getSatisfiability Pages: 1 -->
<svg width="1005pt" height="413pt"
 viewBox="0.00 0.00 1005.00 413.00" xmlns="http://www.w3.org/2000/svg" xmlns:xlink="http://www.w3.org/1999/xlink">
<g id="page0,1_graph0" class="graph" transform="scale(1 1) rotate(0) translate(4 408.88)">
<title>org.xvm.asm.constants.ConditionalConstant.getSatisfiability</title>
<!-- Node1 -->
<g id="Node000001" class="node">
<title>Node1</title>
<g id="a_Node000001"><a xlink:title=" ">
<polygon fill="#999999" stroke="#666666" points="170.5,-238.5 0,-238.5 0,-208 170.5,-208 170.5,-238.5"/>
<text xml:space="preserve" text-anchor="start" x="8" y="-225" font-family="Helvetica,sans-Serif" font-size="10.00">org.xvm.asm.constants.Conditional</text>
<text xml:space="preserve" text-anchor="middle" x="85.25" y="-213.75" font-family="Helvetica,sans-Serif" font-size="10.00">Constant.getSatisfiability</text>
</a>
</g>
</g>
<!-- Node2 -->
<g id="Node000002" class="node">
<title>Node2</title>
<g id="a_Node000002"><a xlink:href="../../da/df0/classorg_1_1xvm_1_1asm_1_1constants_1_1_conditional_constant.html#a245837ab46f5cfd390cedce9cb62224a" target="_top" xlink:title="Calculate the influence of each terminal condition on the result of the conditional.">
<polygon fill="white" stroke="#666666" points="377,-238.5 206.5,-238.5 206.5,-208 377,-208 377,-238.5"/>
<text xml:space="preserve" text-anchor="start" x="214.5" y="-225" font-family="Helvetica,sans-Serif" font-size="10.00">org.xvm.asm.constants.Conditional</text>
<text xml:space="preserve" text-anchor="middle" x="291.75" y="-213.75" font-family="Helvetica,sans-Serif" font-size="10.00">Constant.terminalInfluences</text>
</a>
</g>
</g>
<!-- Node1&#45;&gt;Node2 -->
<g id="edge1_Node000001_Node000002" class="edge">
<title>Node1&#45;&gt;Node2</title>
<g id="a_edge1_Node000001_Node000002"><a xlink:title=" ">
<path fill="none" stroke="#63b8ff" d="M170.9,-223.25C178.82,-223.25 186.88,-223.25 194.89,-223.25"/>
<polygon fill="#63b8ff" stroke="#63b8ff" points="194.65,-226.75 204.65,-223.25 194.65,-219.75 194.65,-226.75"/>
</a>
</g>
</g>
<!-- Node3 -->
<g id="Node000003" class="node">
<title>Node3</title>
<g id="a_Node000003"><a xlink:href="../../de/dd8/classorg_1_1xvm_1_1util_1_1_long_list.html#a516e110e4b93dcec392da73b5fb2ab42" target="_top" xlink:title=" ">
<polygon fill="white" stroke="#666666" points="561,-404.88 435.5,-404.88 435.5,-385.62 561,-385.62 561,-404.88"/>
<text xml:space="preserve" text-anchor="middle" x="498.25" y="-391.38" font-family="Helvetica,sans-Serif" font-size="10.00">org.xvm.util.LongList.add</text>
</a>
</g>
</g>
<!-- Node2&#45;&gt;Node3 -->
<g id="edge2_Node000002_Node000003" class="edge">
<title>Node2&#45;&gt;Node3</title>
<g id="a_edge2_Node000002_Node000003"><a xlink:title=" ">
<path fill="none" stroke="#63b8ff" d="M300.24,-238.7C316.27,-269.99 357.01,-340.89 413,-376.25 416.57,-378.5 420.37,-380.49 424.32,-382.25"/>
<polygon fill="#63b8ff" stroke="#63b8ff" points="423.01,-385.49 433.6,-385.82 425.52,-378.96 423.01,-385.49"/>
</a>
</g>
</g>
<!-- Node4 -->
<g id="Node000004" class="node">
<title>Node4</title>
<g id="a_Node000004"><a xlink:href="../../da/df0/classorg_1_1xvm_1_1asm_1_1constants_1_1_conditional_constant.html#a364c557a1e25de0f3f45f9397780ac80" target="_top" xlink:title="Brute force test every single possible input on this condition.">
<polygon fill="white" stroke="#666666" points="583.5,-367.5 413,-367.5 413,-337 583.5,-337 583.5,-367.5"/>
<text xml:space="preserve" text-anchor="start" x="421" y="-354" font-family="Helvetica,sans-Serif" font-size="10.00">org.xvm.asm.constants.Conditional</text>
<text xml:space="preserve" text-anchor="middle" x="498.25" y="-342.75" font-family="Helvetica,sans-Serif" font-size="10.00">Constant.bruteForce</text>
</a>
</g>
</g>
<!-- Node2&#45;&gt;Node4 -->
<g id="edge3_Node000002_Node000004" class="edge">
<title>Node2&#45;&gt;Node4</title>
<g id="a_edge3_Node000002_Node000004"><a xlink:title=" ">
<path fill="none" stroke="#63b8ff" d="M307.71,-238.84C329.2,-260.46 370.88,-299.55 413,-323.25 419.02,-326.64 425.49,-329.72 432.09,-332.51"/>
<polygon fill="#63b8ff" stroke="#63b8ff" points="430.51,-335.65 441.1,-336.09 433.1,-329.14 430.51,-335.65"/>
</a>
</g>
</g>
<!-- Node6 -->
<g id="Node000006" class="node">
<title>Node6</title>
<g id="a_Node000006"><a xlink:href="../../da/df0/classorg_1_1xvm_1_1asm_1_1constants_1_1_conditional_constant.html#a093239ab5db938472cbb98a4e4258c3a" target="_top" xlink:title=" ">
<polygon fill="white" stroke="#666666" points="996.5,-281.5 826,-281.5 826,-251 996.5,-251 996.5,-281.5"/>
<text xml:space="preserve" text-anchor="start" x="834" y="-268" font-family="Helvetica,sans-Serif" font-size="10.00">org.xvm.asm.constants.Conditional</text>
<text xml:space="preserve" text-anchor="middle" x="911.25" y="-256.75" font-family="Helvetica,sans-Serif" font-size="10.00">Constant.isTerminal</text>
</a>
</g>
</g>
<!-- Node2&#45;&gt;Node6 -->
<g id="edge11_Node000002_Node000006" class="edge">
<title>Node2&#45;&gt;Node6</title>
<g id="a_edge11_Node000002_Node000006"><a xlink:title=" ">
<path fill="none" stroke="#63b8ff" d="M313.06,-238.87C335.91,-255.37 374.83,-280.34 413,-290.25 557.38,-327.76 733.11,-303.78 832.28,-284.18"/>
<polygon fill="#63b8ff" stroke="#63b8ff" points="832.81,-287.64 841.92,-282.23 831.42,-280.78 832.81,-287.64"/>
</a>
</g>
</g>
<!-- Node7 -->
<g id="Node000007" class="node">
<title>Node7</title>
<g id="a_Node000007"><a xlink:href="../../da/df0/classorg_1_1xvm_1_1asm_1_1constants_1_1_conditional_constant.html#ad08a76dd5272aa10ef3022631266d418" target="_top" xlink:title="Determine the relation between two terminal ConditionalConstant objects.">
<polygon fill="white" stroke="#666666" points="583.5,-281.5 413,-281.5 413,-251 583.5,-251 583.5,-281.5"/>
<text xml:space="preserve" text-anchor="start" x="421" y="-268" font-family="Helvetica,sans-Serif" font-size="10.00">org.xvm.asm.constants.Conditional</text>
<text xml:space="preserve" text-anchor="middle" x="498.25" y="-256.75" font-family="Helvetica,sans-Serif" font-size="10.00">Constant.calcRelation</text>
</a>
</g>
</g>
<!-- Node2&#45;&gt;Node7 -->
<g id="edge6_Node000002_Node000007" class="edge">
<title>Node2&#45;&gt;Node7</title>
<g id="a_edge6_Node000002_Node000007"><a xlink:title=" ">
<path fill="none" stroke="#63b8ff" d="M367.45,-238.96C381.72,-241.96 396.77,-245.12 411.36,-248.19"/>
<polygon fill="#63b8ff" stroke="#63b8ff" points="410.43,-251.57 420.93,-250.2 411.87,-244.72 410.43,-251.57"/>
</a>
</g>
</g>
<!-- Node8 -->
<g id="Node000008" class="node">
<title>Node8</title>
<g id="a_Node000008"><a xlink:href="../../da/df0/classorg_1_1xvm_1_1asm_1_1constants_1_1_conditional_constant.html#a783beaadcf892cfc3ada43ae7278e8c3" target="_top" xlink:title="Construct a ConditionalConstant.">
<polygon fill="white" stroke="#666666" points="790,-238.5 619.5,-238.5 619.5,-208 790,-208 790,-238.5"/>
<text xml:space="preserve" text-anchor="start" x="627.5" y="-225" font-family="Helvetica,sans-Serif" font-size="10.00">org.xvm.asm.constants.Conditional</text>
<text xml:space="preserve" text-anchor="middle" x="704.75" y="-213.75" font-family="Helvetica,sans-Serif" font-size="10.00">Constant.ConditionalConstant</text>
</a>
</g>
</g>
<!-- Node2&#45;&gt;Node8 -->
<g id="edge9_Node000002_Node000008" class="edge">
<title>Node2&#45;&gt;Node8</title>
<g id="a_edge9_Node000002_Node000008"><a xlink:title=" ">
<path fill="none" stroke="#63b8ff" d="M377.41,-223.25C444.41,-223.25 538,-223.25 607.77,-223.25"/>
<polygon fill="#63b8ff" stroke="#63b8ff" points="607.69,-226.75 617.69,-223.25 607.69,-219.75 607.69,-226.75"/>
</a>
</g>
</g>
<!-- Node9 -->
<g id="Node000009" class="node">
<title>Node9</title>
<g id="a_Node000009"><a xlink:href="../../db/d92/enumorg_1_1xvm_1_1asm_1_1constants_1_1_conditional_constant_1_1_influence.html#a2dd7fdda63a7e4bbe5e462b335fda853" target="_top" xlink:title="Determine the inverse (the &quot;not&quot;) of the Influence.">
<polygon fill="white" stroke="#666666" points="583.5,-195.5 413,-195.5 413,-165 583.5,-165 583.5,-195.5"/>
<text xml:space="preserve" text-anchor="start" x="421" y="-182" font-family="Helvetica,sans-Serif" font-size="10.00">org.xvm.asm.constants.Conditional</text>
<text xml:space="preserve" text-anchor="middle" x="498.25" y="-170.75" font-family="Helvetica,sans-Serif" font-size="10.00">Constant.Influence.inverse</text>
</a>
</g>
</g>
<!-- Node2&#45;&gt;Node9 -->
<g id="edge10_Node000002_Node000009" class="edge">
<title>Node2&#45;&gt;Node9</title>
<g id="a_edge10_Node000002_Node000009"><a xlink:title=" ">
<path fill="none" stroke="#63b8ff" d="M367.45,-207.54C381.72,-204.54 396.77,-201.38 411.36,-198.31"/>
<polygon fill="#63b8ff" stroke="#63b8ff" points="411.87,-201.78 420.93,-196.3 410.43,-194.93 411.87,-201.78"/>
</a>
</g>
</g>
<!-- Node10 -->
<g id="Node000010" class="node">
<title>Node10</title>
<g id="a_Node000010"><a xlink:href="../../da/df0/classorg_1_1xvm_1_1asm_1_1constants_1_1_conditional_constant.html#aea902604bd193aacfd1e4986ee4ecf94" target="_top" xlink:title="Determine the set of terminal conditions that make up this ConditionalConstant.">
<polygon fill="white" stroke="#666666" points="583.5,-128.5 413,-128.5 413,-98 583.5,-98 583.5,-128.5"/>
<text xml:space="preserve" text-anchor="start" x="421" y="-115" font-family="Helvetica,sans-Serif" font-size="10.00">org.xvm.asm.constants.Conditional</text>
<text xml:space="preserve" text-anchor="middle" x="498.25" y="-103.75" font-family="Helvetica,sans-Serif" font-size="10.00">Constant.terminals</text>
</a>
</g>
</g>
<!-- Node2&#45;&gt;Node10 -->
<g id="edge12_Node000002_Node000010" class="edge">
<title>Node2&#45;&gt;Node10</title>
<g id="a_edge12_Node000002_Node000010"><a xlink:title=" ">
<path fill="none" stroke="#63b8ff" d="M320.29,-207.53C344.57,-193.76 380.95,-173.35 413,-156.25 426.85,-148.86 442.11,-140.99 455.8,-134.03"/>
<polygon fill="#63b8ff" stroke="#63b8ff" points="457.21,-137.24 464.55,-129.59 454.05,-130.99 457.21,-137.24"/>
</a>
</g>
</g>
<!-- Node12 -->
<g id="Node000012" class="node">
<title>Node12</title>
<g id="a_Node000012"><a xlink:href="../../de/dd8/classorg_1_1xvm_1_1util_1_1_long_list.html#a8d6531d20e73993281967818baa693a5" target="_top" xlink:title=" ">
<polygon fill="white" stroke="#666666" points="557.25,-79.5 439.25,-79.5 439.25,-49 557.25,-49 557.25,-79.5"/>
<text xml:space="preserve" text-anchor="start" x="447.25" y="-66" font-family="Helvetica,sans-Serif" font-size="10.00">org.xvm.util.LongList.to</text>
<text xml:space="preserve" text-anchor="middle" x="498.25" y="-54.75" font-family="Helvetica,sans-Serif" font-size="10.00">Array</text>
</a>
</g>
</g>
<!-- Node2&#45;&gt;Node12 -->
<g id="edge18_Node000002_Node000012" class="edge">
<title>Node2&#45;&gt;Node12</title>
<g id="a_edge18_Node000002_Node000012"><a xlink:title=" ">
<path fill="none" stroke="#63b8ff" d="M302.31,-207.89C320.44,-180.05 362.54,-121.16 413,-89.25 417.79,-86.22 422.97,-83.54 428.32,-81.18"/>
<polygon fill="#63b8ff" stroke="#63b8ff" points="429.37,-84.53 437.36,-77.57 426.77,-78.03 429.37,-84.53"/>
</a>
</g>
</g>
<!-- Node13 -->
<g id="Node000013" class="node">
<title>Node13</title>
<g id="a_Node000013"><a xlink:href="../../db/d92/enumorg_1_1xvm_1_1asm_1_1constants_1_1_conditional_constant_1_1_influence.html#a9797475eec30d383358d428ce18dc393" target="_top" xlink:title=" ">
<polygon fill="white" stroke="#666666" points="583.5,-30.5 413,-30.5 413,0 583.5,0 583.5,-30.5"/>
<text xml:space="preserve" text-anchor="start" x="421" y="-17" font-family="Helvetica,sans-Serif" font-size="10.00">org.xvm.asm.constants.Conditional</text>
<text xml:space="preserve" text-anchor="middle" x="498.25" y="-5.75" font-family="Helvetica,sans-Serif" font-size="10.00">Constant.Influence.translate</text>
</a>
</g>
</g>
<!-- Node2&#45;&gt;Node13 -->
<g id="edge19_Node000002_Node000013" class="edge">
<title>Node2&#45;&gt;Node13</title>
<g id="a_edge19_Node000002_Node000013"><a xlink:title=" ">
<path fill="none" stroke="#63b8ff" d="M298.63,-207.59C312.71,-172.21 351.81,-85.71 413,-40.25 414.99,-38.77 417.07,-37.38 419.21,-36.07"/>
<polygon fill="#63b8ff" stroke="#63b8ff" points="420.49,-39.36 427.66,-31.55 417.19,-33.18 420.49,-39.36"/>
</a>
</g>
</g>
<!-- Node5 -->
<g id="Node000005" class="node">
<title>Node5</title>
<g id="a_Node000005"><a xlink:href="../../da/df0/classorg_1_1xvm_1_1asm_1_1constants_1_1_conditional_constant.html#ace55438d964d3db340ce038e8e980d61" target="_top" xlink:title="Used to brute&#45;force evaluate every possible condition without using a LinkerContext.">
<polygon fill="white" stroke="#666666" points="790,-367.5 619.5,-367.5 619.5,-337 790,-337 790,-367.5"/>
<text xml:space="preserve" text-anchor="start" x="627.5" y="-354" font-family="Helvetica,sans-Serif" font-size="10.00">org.xvm.asm.constants.Conditional</text>
<text xml:space="preserve" text-anchor="middle" x="704.75" y="-342.75" font-family="Helvetica,sans-Serif" font-size="10.00">Constant.testEvaluate</text>
</a>
</g>
</g>
<!-- Node4&#45;&gt;Node5 -->
<g id="edge4_Node000004_Node000005" class="edge">
<title>Node4&#45;&gt;Node5</title>
<g id="a_edge4_Node000004_Node000005"><a xlink:title=" ">
<path fill="none" stroke="#63b8ff" d="M583.9,-352.25C591.82,-352.25 599.88,-352.25 607.89,-352.25"/>
<polygon fill="#63b8ff" stroke="#63b8ff" points="607.65,-355.75 617.65,-352.25 607.65,-348.75 607.65,-355.75"/>
</a>
</g>
</g>
<!-- Node5&#45;&gt;Node6 -->
<g id="edge5_Node000005_Node000006" class="edge">
<title>Node5&#45;&gt;Node6</title>
<g id="a_edge5_Node000005_Node000006"><a xlink:title=" ">
<path fill="none" stroke="#63b8ff" d="M754.21,-336.6C766.02,-332.51 778.54,-327.92 790,-323.25 816.9,-312.28 846.39,-298.34 869.43,-286.99"/>
<polygon fill="#63b8ff" stroke="#63b8ff" points="870.77,-290.23 878.17,-282.65 867.66,-283.96 870.77,-290.23"/>
</a>
</g>
</g>
<!-- Node7&#45;&gt;Node6 -->
<g id="edge8_Node000007_Node000006" class="edge">
<title>Node7&#45;&gt;Node6</title>
<g id="a_edge8_Node000007_Node000006"><a xlink:title=" ">
<path fill="none" stroke="#63b8ff" d="M583.91,-266.25C650.91,-266.25 744.5,-266.25 814.27,-266.25"/>
<polygon fill="#63b8ff" stroke="#63b8ff" points="814.19,-269.75 824.19,-266.25 814.19,-262.75 814.19,-269.75"/>
</a>
</g>
</g>
<!-- Node7&#45;&gt;Node8 -->
<g id="edge7_Node000007_Node000008" class="edge">
<title>Node7&#45;&gt;Node8</title>
<g id="a_edge7_Node000007_Node000008"><a xlink:title=" ">
<path fill="none" stroke="#63b8ff" d="M573.95,-250.54C588.22,-247.54 603.27,-244.38 617.86,-241.31"/>
<polygon fill="#63b8ff" stroke="#63b8ff" points="618.37,-244.78 627.43,-239.3 616.93,-237.93 618.37,-244.78"/>
</a>
</g>
</g>
<!-- Node10&#45;&gt;Node6 -->
<g id="edge16_Node000010_Node000006" class="edge">
<title>Node10&#45;&gt;Node6</title>
<g id="a_edge16_Node000010_Node000006"><a xlink:title=" ">
<path fill="none" stroke="#63b8ff" d="M567.7,-128.95C627.57,-143.74 716.24,-168.24 790,-199.25 820.46,-212.05 853.09,-230.57 876.66,-244.89"/>
<polygon fill="#63b8ff" stroke="#63b8ff" points="874.54,-247.69 884.89,-249.95 878.21,-241.73 874.54,-247.69"/>
</a>
</g>
</g>
<!-- Node10&#45;&gt;Node10 -->
<g id="edge17_Node000010_Node000010" class="edge">
<title>Node10&#45;&gt;Node10</title>
<g id="a_edge17_Node000010_Node000010"><a xlink:title=" ">
<path fill="none" stroke="#63b8ff" d="M461.66,-128.99C454.19,-138.06 466.39,-146.5 498.25,-146.5 515.67,-146.5 527.22,-143.97 532.88,-140.2"/>
<polygon fill="#63b8ff" stroke="#63b8ff" points="536.31,-140.93 534.58,-130.48 529.41,-139.72 536.31,-140.93"/>
</a>
</g>
</g>
<!-- Node11 -->
<g id="Node000011" class="node">
<title>Node11</title>
<g id="a_Node000011"><a xlink:href="../../da/df0/classorg_1_1xvm_1_1asm_1_1constants_1_1_conditional_constant.html#a5d7b7e1fc3c826660d2fb511116fdd1f" target="_top" xlink:title="Determine the set of terminal conditions that make up this ConditionalConstant.">
<polygon fill="white" stroke="#666666" points="790,-128.5 619.5,-128.5 619.5,-98 790,-98 790,-128.5"/>
<text xml:space="preserve" text-anchor="start" x="627.5" y="-115" font-family="Helvetica,sans-Serif" font-size="10.00">org.xvm.asm.constants.Conditional</text>
<text xml:space="preserve" text-anchor="middle" x="704.75" y="-103.75" font-family="Helvetica,sans-Serif" font-size="10.00">Constant.collectTerminals</text>
</a>
</g>
</g>
<!-- Node10&#45;&gt;Node11 -->
<g id="edge13_Node000010_Node000011" class="edge">
<title>Node10&#45;&gt;Node11</title>
<g id="a_edge13_Node000010_Node000011"><a xlink:title=" ">
<path fill="none" stroke="#63b8ff" d="M583.9,-106.59C591.82,-106.51 599.88,-106.48 607.89,-106.51"/>
<polygon fill="#63b8ff" stroke="#63b8ff" points="607.62,-110.01 617.65,-106.58 607.67,-103.01 607.62,-110.01"/>
</a>
</g>
</g>
<!-- Node11&#45;&gt;Node6 -->
<g id="edge14_Node000011_Node000006" class="edge">
<title>Node11&#45;&gt;Node6</title>
<g id="a_edge14_Node000011_Node000006"><a xlink:title=" ">
<path fill="none" stroke="#63b8ff" d="M743.98,-128.93C758.89,-135.79 775.78,-144.49 790,-154.25 827.92,-180.27 865.77,-217.93 888.59,-242.26"/>
<polygon fill="#63b8ff" stroke="#63b8ff" points="885.9,-244.5 895.27,-249.46 891.04,-239.74 885.9,-244.5"/>
</a>
</g>
</g>
<!-- Node11&#45;&gt;Node10 -->
<g id="edge15_Node000011_Node000010" class="edge">
<title>Node11&#45;&gt;Node10</title>
<g id="a_edge15_Node000011_Node000010"><a xlink:title=" ">
<path fill="none" stroke="#63b8ff" d="M619.16,-119.91C611.24,-119.99 603.18,-120.02 595.17,-119.99"/>
<polygon fill="#63b8ff" stroke="#63b8ff" points="595.44,-116.49 585.42,-119.92 595.39,-123.49 595.44,-116.49"/>
</a>
</g>
</g>
</g>
</svg>
