<?xml version="1.0" encoding="UTF-8" standalone="no"?>
<!DOCTYPE svg PUBLIC "-//W3C//DTD SVG 1.1//EN"
 "http://www.w3.org/Graphics/SVG/1.1/DTD/svg11.dtd">
<!-- Generated by graphviz version 14.1.3 (20260303.0454)
 -->
<!-- Title: org.xvm.asm.constants.IntersectionTypeConstant.ensureAccess Pages: 1 -->
<svg width="1617pt" height="583pt"
 viewBox="0.00 0.00 1617.00 583.00" xmlns="http://www.w3.org/2000/svg" xmlns:xlink="http://www.w3.org/1999/xlink">
<g id="page0,1_graph0" class="graph" transform="scale(1 1) rotate(0) translate(4 579.23)">
<title>org.xvm.asm.constants.IntersectionTypeConstant.ensureAccess</title>
<!-- Node1 -->
<g id="Node000001" class="node">
<title>Node1</title>
<g id="a_Node000001"><a xlink:title="Ensure that this type has the specified access modifier.">
<polygon fill="#999999" stroke="#666666" points="172.75,-239.5 0,-239.5 0,-209 172.75,-209 172.75,-239.5"/>
<text xml:space="preserve" text-anchor="start" x="8" y="-226" font-family="Helvetica,sans-Serif" font-size="10.00">org.xvm.asm.constants.Intersection</text>
<text xml:space="preserve" text-anchor="middle" x="86.38" y="-214.75" font-family="Helvetica,sans-Serif" font-size="10.00">TypeConstant.ensureAccess</text>
</a>
</g>
</g>
<!-- Node2 -->
<g id="Node000002" class="node">
<title>Node2</title>
<g id="a_Node000002"><a xlink:href="../../d2/dde/classorg_1_1xvm_1_1asm_1_1constants_1_1_intersection_type_constant.html#a0d13a3f90fb859eae6126d8d529e34f8" target="_top" xlink:title=" ">
<polygon fill="white" stroke="#666666" points="381.5,-215.5 208.75,-215.5 208.75,-185 381.5,-185 381.5,-215.5"/>
<text xml:space="preserve" text-anchor="start" x="216.75" y="-202" font-family="Helvetica,sans-Serif" font-size="10.00">org.xvm.asm.constants.Intersection</text>
<text xml:space="preserve" text-anchor="middle" x="295.12" y="-190.75" font-family="Helvetica,sans-Serif" font-size="10.00">TypeConstant.cloneRelational</text>
</a>
</g>
</g>
<!-- Node1&#45;&gt;Node2 -->
<g id="edge1_Node000001_Node000002" class="edge">
<title>Node1&#45;&gt;Node2</title>
<g id="a_edge1_Node000001_Node000002"><a xlink:title=" ">
<path fill="none" stroke="#63b8ff" d="M172.96,-214.32C180.89,-213.39 188.96,-212.46 196.98,-211.53"/>
<polygon fill="#63b8ff" stroke="#63b8ff" points="197.24,-215.02 206.77,-210.39 196.43,-208.07 197.24,-215.02"/>
</a>
</g>
</g>
<!-- Node17 -->
<g id="Node000017" class="node">
<title>Node17</title>
<g id="a_Node000017"><a xlink:href="../../d2/d58/classorg_1_1xvm_1_1asm_1_1constants_1_1_type_constant.html#a40a2cb008e52a6deca1ccb7894e6b433" target="_top" xlink:title="Ensure that this type has the specified access modifier.">
<polygon fill="white" stroke="#666666" points="366.5,-294.5 223.75,-294.5 223.75,-264 366.5,-264 366.5,-294.5"/>
<text xml:space="preserve" text-anchor="start" x="231.75" y="-281" font-family="Helvetica,sans-Serif" font-size="10.00">org.xvm.asm.constants.Type</text>
<text xml:space="preserve" text-anchor="middle" x="295.12" y="-269.75" font-family="Helvetica,sans-Serif" font-size="10.00">Constant.ensureAccess</text>
</a>
</g>
</g>
<!-- Node1&#45;&gt;Node17 -->
<g id="edge21_Node000001_Node000017" class="edge">
<title>Node1&#45;&gt;Node17</title>
<g id="a_edge21_Node000001_Node000017"><a xlink:title=" ">
<path fill="none" stroke="#63b8ff" d="M146.34,-239.94C170.57,-246.38 198.81,-253.89 224.08,-260.62"/>
<polygon fill="#63b8ff" stroke="#63b8ff" points="223.05,-263.96 233.61,-263.15 224.85,-257.2 223.05,-263.96"/>
</a>
</g>
</g>
<!-- Node23 -->
<g id="Node000023" class="node">
<title>Node23</title>
<g id="a_Node000023"><a xlink:href="../../d3/dba/classorg_1_1xvm_1_1asm_1_1_constant.html#abb94bf2f63ad2caba56a57f1557d1a09" target="_top" xlink:title="Get a reference to the ConstantPool that is shared by all of the XvmStructures within the same FileSt...">
<polygon fill="white" stroke="#666666" points="567.38,-166.5 435.12,-166.5 435.12,-136 567.38,-136 567.38,-166.5"/>
<text xml:space="preserve" text-anchor="start" x="443.12" y="-153" font-family="Helvetica,sans-Serif" font-size="10.00">org.xvm.asm.Constant.get</text>
<text xml:space="preserve" text-anchor="middle" x="501.25" y="-141.75" font-family="Helvetica,sans-Serif" font-size="10.00">ConstantPool</text>
</a>
</g>
</g>
<!-- Node1&#45;&gt;Node23 -->
<g id="edge48_Node000001_Node000023" class="edge">
<title>Node1&#45;&gt;Node23</title>
<g id="a_edge48_Node000001_Node000023"><a xlink:title=" ">
<path fill="none" stroke="#63b8ff" d="M119.51,-208.56C143.51,-197.58 177.43,-183.62 208.75,-176.25 280.4,-159.39 364.34,-153.61 423.69,-151.76"/>
<polygon fill="#63b8ff" stroke="#63b8ff" points="423.44,-155.27 433.34,-151.5 423.25,-148.28 423.44,-155.27"/>
</a>
</g>
</g>
<!-- Node26 -->
<g id="Node000026" class="node">
<title>Node26</title>
<g id="a_Node000026"><a xlink:href="../../d2/d58/classorg_1_1xvm_1_1asm_1_1constants_1_1_type_constant.html#ae687665cf8d543f091e4f400bdc50258" target="_top" xlink:title=" ">
<polygon fill="white" stroke="#666666" points="777.62,-522.5 634.88,-522.5 634.88,-492 777.62,-492 777.62,-522.5"/>
<text xml:space="preserve" text-anchor="start" x="642.88" y="-509" font-family="Helvetica,sans-Serif" font-size="10.00">org.xvm.asm.constants.Type</text>
<text xml:space="preserve" text-anchor="middle" x="706.25" y="-497.75" font-family="Helvetica,sans-Serif" font-size="10.00">Constant.equals</text>
</a>
</g>
</g>
<!-- Node1&#45;&gt;Node26 -->
<g id="edge41_Node000001_Node000026" class="edge">
<title>Node1&#45;&gt;Node26</title>
<g id="a_edge41_Node000001_Node000026"><a xlink:title=" ">
<path fill="none" stroke="#63b8ff" d="M111.02,-239.81C135.43,-255.82 174.64,-281.45 208.75,-303.25 301.04,-362.24 316.8,-391.15 417.5,-434.25 484.27,-462.83 564.72,-482.06 623.56,-493.58"/>
<polygon fill="#63b8ff" stroke="#63b8ff" points="622.69,-496.98 633.17,-495.43 624.01,-490.11 622.69,-496.98"/>
</a>
</g>
</g>
<!-- Node3 -->
<g id="Node000003" class="node">
<title>Node3</title>
<g id="a_Node000003"><a xlink:href="../../d8/de1/classorg_1_1xvm_1_1asm_1_1_constant_pool.html#a5ba62eaedbbc42f648b2fc0a99c31778" target="_top" xlink:title="Given two types, obtain a TypeConstant that represents the intersection of those two types.">
<polygon fill="white" stroke="#666666" points="585,-215.5 417.5,-215.5 417.5,-185 585,-185 585,-215.5"/>
<text xml:space="preserve" text-anchor="start" x="425.5" y="-202" font-family="Helvetica,sans-Serif" font-size="10.00">org.xvm.asm.ConstantPool.ensure</text>
<text xml:space="preserve" text-anchor="middle" x="501.25" y="-190.75" font-family="Helvetica,sans-Serif" font-size="10.00">IntersectionTypeConstant</text>
</a>
</g>
</g>
<!-- Node2&#45;&gt;Node3 -->
<g id="edge2_Node000002_Node000003" class="edge">
<title>Node2&#45;&gt;Node3</title>
<g id="a_edge2_Node000002_Node000003"><a xlink:title=" ">
<path fill="none" stroke="#63b8ff" d="M381.81,-200.25C389.74,-200.25 397.81,-200.25 405.82,-200.25"/>
<polygon fill="#63b8ff" stroke="#63b8ff" points="405.56,-203.75 415.56,-200.25 405.56,-196.75 405.56,-203.75"/>
</a>
</g>
</g>
<!-- Node4 -->
<g id="Node000004" class="node">
<title>Node4</title>
<g id="a_Node000004"><a xlink:href="../../d8/de1/classorg_1_1xvm_1_1asm_1_1_constant_pool.html#a96af322337d3cfdb2a927e0221651113" target="_top" xlink:title="Register a Constant.">
<polygon fill="white" stroke="#666666" points="791.5,-116.88 621,-116.88 621,-97.62 791.5,-97.62 791.5,-116.88"/>
<text xml:space="preserve" text-anchor="middle" x="706.25" y="-103.38" font-family="Helvetica,sans-Serif" font-size="10.00">org.xvm.asm.ConstantPool.register</text>
</a>
</g>
</g>
<!-- Node3&#45;&gt;Node4 -->
<g id="edge3_Node000003_Node000004" class="edge">
<title>Node3&#45;&gt;Node4</title>
<g id="a_edge3_Node000003_Node000004"><a xlink:title=" ">
<path fill="none" stroke="#63b8ff" d="M562.82,-184.52C570.44,-181.8 578.01,-178.71 585,-175.25 602.69,-166.5 604.11,-159.46 621,-149.25 637.36,-139.35 656.37,-129.73 672.18,-122.2"/>
<polygon fill="#63b8ff" stroke="#63b8ff" points="673.61,-125.39 681.18,-117.98 670.64,-119.06 673.61,-125.39"/>
</a>
</g>
</g>
<!-- Node4&#45;&gt;Node4 -->
<g id="edge20_Node000004_Node000004" class="edge">
<title>Node4&#45;&gt;Node4</title>
<g id="a_edge20_Node000004_Node000004"><a xlink:title=" ">
<path fill="none" stroke="#63b8ff" d="M674.16,-117.16C659.52,-125.77 670.21,-134.88 706.25,-134.88 727.65,-134.88 740.11,-131.67 743.64,-127.26"/>
<polygon fill="#63b8ff" stroke="#63b8ff" points="746.79,-125.73 739.05,-118.5 740.6,-128.98 746.79,-125.73"/>
</a>
</g>
</g>
<!-- Node5 -->
<g id="Node000005" class="node">
<title>Node5</title>
<g id="a_Node000005"><a xlink:href="../../d8/de1/classorg_1_1xvm_1_1asm_1_1_constant_pool.html#a260e6f716c54d2ea60c01c060ec9ccfa" target="_top" xlink:title="Obtain a Constant lookup table for Constants of the specified type, using Constants as the keys of th...">
<polygon fill="white" stroke="#666666" points="996.88,-97.5 829.38,-97.5 829.38,-67 996.88,-67 996.88,-97.5"/>
<text xml:space="preserve" text-anchor="start" x="837.38" y="-84" font-family="Helvetica,sans-Serif" font-size="10.00">org.xvm.asm.ConstantPool.ensure</text>
<text xml:space="preserve" text-anchor="middle" x="913.12" y="-72.75" font-family="Helvetica,sans-Serif" font-size="10.00">ConstantLookup</text>
</a>
</g>
</g>
<!-- Node4&#45;&gt;Node5 -->
<g id="edge4_Node000004_Node000005" class="edge">
<title>Node4&#45;&gt;Node5</title>
<g id="a_edge4_Node000004_Node000005"><a xlink:title=" ">
<path fill="none" stroke="#63b8ff" d="M789.99,-97.15C799.15,-96.04 808.53,-94.89 817.81,-93.76"/>
<polygon fill="#63b8ff" stroke="#63b8ff" points="818.07,-97.25 827.57,-92.57 817.22,-90.3 818.07,-97.25"/>
</a>
</g>
</g>
<!-- Node7 -->
<g id="Node000007" class="node">
<title>Node7</title>
<g id="a_Node000007"><a xlink:href="../../d8/de1/classorg_1_1xvm_1_1asm_1_1_constant_pool.html#a82e4658ca2fc7a84f160aaa1fd78efd7" target="_top" xlink:title="Obtain a Constant lookup table for Constants of the specified type, using locators as the keys of the...">
<polygon fill="white" stroke="#666666" points="1405.75,-143.5 1238.25,-143.5 1238.25,-113 1405.75,-113 1405.75,-143.5"/>
<text xml:space="preserve" text-anchor="start" x="1246.25" y="-130" font-family="Helvetica,sans-Serif" font-size="10.00">org.xvm.asm.ConstantPool.ensure</text>
<text xml:space="preserve" text-anchor="middle" x="1322" y="-118.75" font-family="Helvetica,sans-Serif" font-size="10.00">LocatorLookup</text>
</a>
</g>
</g>
<!-- Node4&#45;&gt;Node7 -->
<g id="edge9_Node000004_Node000007" class="edge">
<title>Node4&#45;&gt;Node7</title>
<g id="a_edge9_Node000004_Node000007"><a xlink:title=" ">
<path fill="none" stroke="#63b8ff" d="M791.94,-110.15C905.99,-114.05 1108.28,-120.97 1226.94,-125.03"/>
<polygon fill="#63b8ff" stroke="#63b8ff" points="1226.53,-128.52 1236.64,-125.36 1226.77,-121.52 1226.53,-128.52"/>
</a>
</g>
</g>
<!-- Node10 -->
<g id="Node000010" class="node">
<title>Node10</title>
<g id="a_Node000010"><a xlink:href="../../d3/dba/classorg_1_1xvm_1_1asm_1_1_constant.html#ac5a8183f37a6096526f35f136b18a5bd" target="_top" xlink:title=" ">
<polygon fill="white" stroke="#666666" points="986.75,-276.88 839.5,-276.88 839.5,-257.62 986.75,-257.62 986.75,-276.88"/>
<text xml:space="preserve" text-anchor="middle" x="913.12" y="-263.38" font-family="Helvetica,sans-Serif" font-size="10.00">org.xvm.asm.Constant.equals</text>
</a>
</g>
</g>
<!-- Node4&#45;&gt;Node10 -->
<g id="edge10_Node000004_Node000010" class="edge">
<title>Node4&#45;&gt;Node10</title>
<g id="a_edge10_Node000004_Node000010"><a xlink:title=" ">
<path fill="none" stroke="#63b8ff" d="M720.07,-117.26C754.2,-143.92 847.61,-216.87 890.31,-250.21"/>
<polygon fill="#63b8ff" stroke="#63b8ff" points="888.09,-252.92 898.12,-256.31 892.39,-247.4 888.09,-252.92"/>
</a>
</g>
</g>
<!-- Node15 -->
<g id="Node000015" class="node">
<title>Node15</title>
<g id="a_Node000015"><a xlink:href="../../d7/d57/classorg_1_1xvm_1_1asm_1_1_xvm_structure.html#a0213707087f22fc700d7450830f309dc" target="_top" xlink:title="Obtain the containing XVM structure.">
<polygon fill="white" stroke="#666666" points="989.38,-48.5 836.88,-48.5 836.88,-18 989.38,-18 989.38,-48.5"/>
<text xml:space="preserve" text-anchor="start" x="844.88" y="-35" font-family="Helvetica,sans-Serif" font-size="10.00">org.xvm.asm.XvmStructure.get</text>
<text xml:space="preserve" text-anchor="middle" x="913.12" y="-23.75" font-family="Helvetica,sans-Serif" font-size="10.00">Containing</text>
</a>
</g>
</g>
<!-- Node4&#45;&gt;Node15 -->
<g id="edge17_Node000004_Node000015" class="edge">
<title>Node4&#45;&gt;Node15</title>
<g id="a_edge17_Node000004_Node000015"><a xlink:title=" ">
<path fill="none" stroke="#63b8ff" d="M730.04,-97.17C754.04,-86.74 793.04,-70.33 827.5,-58.25 833.28,-56.22 839.32,-54.22 845.4,-52.28"/>
<polygon fill="#63b8ff" stroke="#63b8ff" points="846.39,-55.64 854.89,-49.32 844.3,-48.96 846.39,-55.64"/>
</a>
</g>
</g>
<!-- Node6 -->
<g id="Node000006" class="node">
<title>Node6</title>
<g id="a_Node000006"><a xlink:href="../../d8/de1/classorg_1_1xvm_1_1asm_1_1_constant_pool.html#a118a3a2affee47ca567bfed7ccdbc179" target="_top" xlink:title="Create the necessary structures for looking up Constant objects quickly, and populate those structure...">
<polygon fill="white" stroke="#666666" points="1202.25,-97.5 1034.75,-97.5 1034.75,-67 1202.25,-67 1202.25,-97.5"/>
<text xml:space="preserve" text-anchor="start" x="1042.75" y="-84" font-family="Helvetica,sans-Serif" font-size="10.00">org.xvm.asm.ConstantPool.ensure</text>
<text xml:space="preserve" text-anchor="middle" x="1118.5" y="-72.75" font-family="Helvetica,sans-Serif" font-size="10.00">ConstantLookupComplex</text>
</a>
</g>
</g>
<!-- Node5&#45;&gt;Node6 -->
<g id="edge5_Node000005_Node000006" class="edge">
<title>Node5&#45;&gt;Node6</title>
<g id="a_edge5_Node000005_Node000006"><a xlink:title=" ">
<path fill="none" stroke="#63b8ff" d="M997.14,-82.25C1005.69,-82.25 1014.43,-82.25 1023.09,-82.25"/>
<polygon fill="#63b8ff" stroke="#63b8ff" points="1022.91,-85.75 1032.91,-82.25 1022.91,-78.75 1022.91,-85.75"/>
</a>
</g>
</g>
<!-- Node6&#45;&gt;Node7 -->
<g id="edge6_Node000006_Node000007" class="edge">
<title>Node6&#45;&gt;Node7</title>
<g id="a_edge6_Node000006_Node000007"><a xlink:title=" ">
<path fill="none" stroke="#63b8ff" d="M1188.28,-97.95C1205.37,-101.85 1223.83,-106.07 1241.39,-110.08"/>
<polygon fill="#63b8ff" stroke="#63b8ff" points="1240.18,-113.39 1250.71,-112.2 1241.74,-106.57 1240.18,-113.39"/>
</a>
</g>
</g>
<!-- Node9 -->
<g id="Node000009" class="node">
<title>Node9</title>
<g id="a_Node000009"><a xlink:href="../../d3/dba/classorg_1_1xvm_1_1asm_1_1_constant.html#aa1830b35812d261ff0bff966201ede51" target="_top" xlink:title="Obtain an object that can be used as a key to locate this Constant.">
<polygon fill="white" stroke="#666666" points="1388.12,-94.5 1255.88,-94.5 1255.88,-64 1388.12,-64 1388.12,-94.5"/>
<text xml:space="preserve" text-anchor="start" x="1263.88" y="-81" font-family="Helvetica,sans-Serif" font-size="10.00">org.xvm.asm.Constant.get</text>
<text xml:space="preserve" text-anchor="middle" x="1322" y="-69.75" font-family="Helvetica,sans-Serif" font-size="10.00">Locator</text>
</a>
</g>
</g>
<!-- Node6&#45;&gt;Node9 -->
<g id="edge8_Node000006_Node000009" class="edge">
<title>Node6&#45;&gt;Node9</title>
<g id="a_edge8_Node000006_Node000009"><a xlink:title=" ">
<path fill="none" stroke="#63b8ff" d="M1202.62,-81.01C1216.43,-80.81 1230.69,-80.59 1244.32,-80.39"/>
<polygon fill="#63b8ff" stroke="#63b8ff" points="1244.15,-83.89 1254.09,-80.25 1244.04,-76.9 1244.15,-83.89"/>
</a>
</g>
</g>
<!-- Node8 -->
<g id="Node000008" class="node">
<title>Node8</title>
<g id="a_Node000008"><a xlink:href="../../d8/de1/classorg_1_1xvm_1_1asm_1_1_constant_pool.html#a895bd07f6afdbb472d29542697a44e57" target="_top" xlink:title="Double check locking portion of ensureLocatorLookup(Format), extracted for hot&#45;spotting.">
<polygon fill="white" stroke="#666666" points="1609.25,-143.5 1441.75,-143.5 1441.75,-113 1609.25,-113 1609.25,-143.5"/>
<text xml:space="preserve" text-anchor="start" x="1449.75" y="-130" font-family="Helvetica,sans-Serif" font-size="10.00">org.xvm.asm.ConstantPool.ensure</text>
<text xml:space="preserve" text-anchor="middle" x="1525.5" y="-118.75" font-family="Helvetica,sans-Serif" font-size="10.00">LocatorLookupComplex</text>
</a>
</g>
</g>
<!-- Node7&#45;&gt;Node8 -->
<g id="edge7_Node000007_Node000008" class="edge">
<title>Node7&#45;&gt;Node8</title>
<g id="a_edge7_Node000007_Node000008"><a xlink:title=" ">
<path fill="none" stroke="#63b8ff" d="M1406.12,-128.25C1414.08,-128.25 1422.19,-128.25 1430.24,-128.25"/>
<polygon fill="#63b8ff" stroke="#63b8ff" points="1430.06,-131.75 1440.06,-128.25 1430.06,-124.75 1430.06,-131.75"/>
</a>
</g>
</g>
<!-- Node11 -->
<g id="Node000011" class="node">
<title>Node11</title>
<g id="a_Node000011"><a xlink:href="../../d3/dba/classorg_1_1xvm_1_1asm_1_1_constant.html#a4c3db90924aef281c3ffdcf735b9c75c" target="_top" xlink:title="This method allows each particular type of constant to compare its detailed information with another ...">
<polygon fill="white" stroke="#666666" points="1196.62,-286.5 1040.38,-286.5 1040.38,-256 1196.62,-256 1196.62,-286.5"/>
<text xml:space="preserve" text-anchor="start" x="1048.38" y="-273" font-family="Helvetica,sans-Serif" font-size="10.00">org.xvm.asm.Constant.compare</text>
<text xml:space="preserve" text-anchor="middle" x="1118.5" y="-261.75" font-family="Helvetica,sans-Serif" font-size="10.00">Details</text>
</a>
</g>
</g>
<!-- Node10&#45;&gt;Node11 -->
<g id="edge11_Node000010_Node000011" class="edge">
<title>Node10&#45;&gt;Node11</title>
<g id="a_edge11_Node000010_Node000011"><a xlink:title=" ">
<path fill="none" stroke="#63b8ff" d="M986.97,-268.68C1000.55,-268.95 1014.88,-269.23 1028.87,-269.51"/>
<polygon fill="#63b8ff" stroke="#63b8ff" points="1028.42,-273 1038.49,-269.7 1028.56,-266 1028.42,-273"/>
</a>
</g>
</g>
<!-- Node12 -->
<g id="Node000012" class="node">
<title>Node12</title>
<g id="a_Node000012"><a xlink:href="../../d3/dba/classorg_1_1xvm_1_1asm_1_1_constant.html#a0ee4cdeae6163e8678501bba16960a90" target="_top" xlink:title="Construct a Constant.">
<polygon fill="white" stroke="#666666" points="1401.25,-372.88 1242.75,-372.88 1242.75,-353.62 1401.25,-353.62 1401.25,-372.88"/>
<text xml:space="preserve" text-anchor="middle" x="1322" y="-359.38" font-family="Helvetica,sans-Serif" font-size="10.00">org.xvm.asm.Constant.Constant</text>
</a>
</g>
</g>
<!-- Node10&#45;&gt;Node12 -->
<g id="edge13_Node000010_Node000012" class="edge">
<title>Node10&#45;&gt;Node12</title>
<g id="a_edge13_Node000010_Node000012"><a xlink:title=" ">
<path fill="none" stroke="#63b8ff" d="M942.84,-257.18C996.21,-240.19 1113.32,-211.02 1202.25,-247.25 1250.29,-266.82 1289.49,-316.22 1308.52,-343.83"/>
<polygon fill="#63b8ff" stroke="#63b8ff" points="1305.5,-345.6 1313.96,-351.97 1311.32,-341.71 1305.5,-345.6"/>
</a>
</g>
</g>
<!-- Node13 -->
<g id="Node000013" class="node">
<title>Node13</title>
<g id="a_Node000013"><a xlink:href="../../d3/dba/classorg_1_1xvm_1_1asm_1_1_constant.html#a73cb82bf62ce4b879ee7bd9f7216ae07" target="_top" xlink:title="Determine the enumerated constant format classification.">
<polygon fill="white" stroke="#666666" points="1184.62,-335.5 1052.38,-335.5 1052.38,-305 1184.62,-305 1184.62,-335.5"/>
<text xml:space="preserve" text-anchor="start" x="1060.38" y="-322" font-family="Helvetica,sans-Serif" font-size="10.00">org.xvm.asm.Constant.get</text>
<text xml:space="preserve" text-anchor="middle" x="1118.5" y="-310.75" font-family="Helvetica,sans-Serif" font-size="10.00">Format</text>
</a>
</g>
</g>
<!-- Node10&#45;&gt;Node13 -->
<g id="edge14_Node000010_Node000013" class="edge">
<title>Node10&#45;&gt;Node13</title>
<g id="a_edge14_Node000010_Node000013"><a xlink:title=" ">
<path fill="none" stroke="#63b8ff" d="M961.24,-277.32C973.49,-280.08 986.64,-283.16 998.75,-286.25 1016.82,-290.86 1036.31,-296.26 1054.18,-301.38"/>
<polygon fill="#63b8ff" stroke="#63b8ff" points="1053.03,-304.7 1063.61,-304.11 1054.98,-297.97 1053.03,-304.7"/>
</a>
</g>
</g>
<!-- Node14 -->
<g id="Node000014" class="node">
<title>Node14</title>
<g id="a_Node000014"><a xlink:href="../../d3/dba/classorg_1_1xvm_1_1asm_1_1_constant.html#a278aab66088d97e244e0ca1ed7ed1da4" target="_top" xlink:title="Resolve the constant.">
<polygon fill="white" stroke="#666666" points="1193.62,-372.88 1043.38,-372.88 1043.38,-353.62 1193.62,-353.62 1193.62,-372.88"/>
<text xml:space="preserve" text-anchor="middle" x="1118.5" y="-359.38" font-family="Helvetica,sans-Serif" font-size="10.00">org.xvm.asm.Constant.resolve</text>
</a>
</g>
</g>
<!-- Node10&#45;&gt;Node14 -->
<g id="edge15_Node000010_Node000014" class="edge">
<title>Node10&#45;&gt;Node14</title>
<g id="a_edge15_Node000010_Node000014"><a xlink:title=" ">
<path fill="none" stroke="#63b8ff" d="M982.29,-277.37C988.13,-279.75 993.72,-282.67 998.75,-286.25 1023.48,-303.83 1010.07,-326.61 1034.75,-344.25 1036.72,-345.66 1038.77,-346.96 1040.9,-348.17"/>
<polygon fill="#63b8ff" stroke="#63b8ff" points="1039.37,-351.32 1049.9,-352.51 1042.41,-345.01 1039.37,-351.32"/>
</a>
</g>
</g>
<!-- Node11&#45;&gt;Node12 -->
<g id="edge12_Node000011_Node000012" class="edge">
<title>Node11&#45;&gt;Node12</title>
<g id="a_edge12_Node000011_Node000012"><a xlink:title=" ">
<path fill="none" stroke="#63b8ff" d="M1177.51,-286.99C1185.92,-289.79 1194.38,-292.89 1202.25,-296.25 1236.2,-310.74 1272.84,-332.44 1296.31,-347.18"/>
<polygon fill="#63b8ff" stroke="#63b8ff" points="1294.22,-350 1304.53,-352.42 1297.97,-344.09 1294.22,-350"/>
</a>
</g>
</g>
<!-- Node14&#45;&gt;Node12 -->
<g id="edge16_Node000014_Node000012" class="edge">
<title>Node14&#45;&gt;Node12</title>
<g id="a_edge16_Node000014_Node000012"><a xlink:title=" ">
<path fill="none" stroke="#63b8ff" d="M1193.96,-363.25C1206.06,-363.25 1218.71,-363.25 1231.13,-363.25"/>
<polygon fill="#63b8ff" stroke="#63b8ff" points="1230.94,-366.75 1240.94,-363.25 1230.94,-359.75 1230.94,-366.75"/>
</a>
</g>
</g>
<!-- Node16 -->
<g id="Node000016" class="node">
<title>Node16</title>
<g id="a_Node000016"><a xlink:href="../../d7/d57/classorg_1_1xvm_1_1asm_1_1_xvm_structure.html#ac399a4c1617037f66f2d27477d58fea6" target="_top" xlink:title="Construct an XVM structure.">
<polygon fill="white" stroke="#666666" points="1188,-30.5 1049,-30.5 1049,0 1188,0 1188,-30.5"/>
<text xml:space="preserve" text-anchor="start" x="1057" y="-17" font-family="Helvetica,sans-Serif" font-size="10.00">org.xvm.asm.XvmStructure.</text>
<text xml:space="preserve" text-anchor="middle" x="1118.5" y="-5.75" font-family="Helvetica,sans-Serif" font-size="10.00">XvmStructure</text>
</a>
</g>
</g>
<!-- Node15&#45;&gt;Node16 -->
<g id="edge18_Node000015_Node000016" class="edge">
<title>Node15&#45;&gt;Node16</title>
<g id="a_edge18_Node000015_Node000016"><a xlink:title=" ">
<path fill="none" stroke="#63b8ff" d="M989.85,-26.55C1005.39,-25.17 1021.8,-23.72 1037.49,-22.33"/>
<polygon fill="#63b8ff" stroke="#63b8ff" points="1037.6,-25.84 1047.25,-21.47 1036.98,-18.86 1037.6,-25.84"/>
</a>
</g>
</g>
<!-- Node16&#45;&gt;Node16 -->
<g id="edge19_Node000016_Node000016" class="edge">
<title>Node16&#45;&gt;Node16</title>
<g id="a_edge19_Node000016_Node000016"><a xlink:title=" ">
<path fill="none" stroke="#63b8ff" d="M1082.44,-30.99C1075.08,-40.06 1087.1,-48.5 1118.5,-48.5 1135.67,-48.5 1147.05,-45.97 1152.63,-42.2"/>
<polygon fill="#63b8ff" stroke="#63b8ff" points="1156.05,-42.93 1154.3,-32.48 1149.16,-41.74 1156.05,-42.93"/>
</a>
</g>
</g>
<!-- Node18 -->
<g id="Node000018" class="node">
<title>Node18</title>
<g id="a_Node000018"><a xlink:href="../../d8/de1/classorg_1_1xvm_1_1asm_1_1_constant_pool.html#a9f130f418f6768ab968c2f6894693bdf" target="_top" xlink:title="Obtain a constant that represents a type constant of a particular accessibility.">
<polygon fill="white" stroke="#666666" points="585,-264.5 417.5,-264.5 417.5,-234 585,-234 585,-264.5"/>
<text xml:space="preserve" text-anchor="start" x="425.5" y="-251" font-family="Helvetica,sans-Serif" font-size="10.00">org.xvm.asm.ConstantPool.ensure</text>
<text xml:space="preserve" text-anchor="middle" x="501.25" y="-239.75" font-family="Helvetica,sans-Serif" font-size="10.00">AccessTypeConstant</text>
</a>
</g>
</g>
<!-- Node17&#45;&gt;Node18 -->
<g id="edge22_Node000017_Node000018" class="edge">
<title>Node17&#45;&gt;Node18</title>
<g id="a_edge22_Node000017_Node000018"><a xlink:title=" ">
<path fill="none" stroke="#63b8ff" d="M366.95,-268.84C379.63,-266.98 393.03,-265.01 406.24,-263.07"/>
<polygon fill="#63b8ff" stroke="#63b8ff" points="406.4,-266.58 415.78,-261.66 405.38,-259.66 406.4,-266.58"/>
</a>
</g>
</g>
<!-- Node19 -->
<g id="Node000019" class="node">
<title>Node19</title>
<g id="a_Node000019"><a xlink:href="../../d2/d58/classorg_1_1xvm_1_1asm_1_1constants_1_1_type_constant.html#aa23d5432785d5062cf1162db733c9b37" target="_top" xlink:title=" ">
<polygon fill="white" stroke="#666666" points="777.62,-325.5 634.88,-325.5 634.88,-295 777.62,-295 777.62,-325.5"/>
<text xml:space="preserve" text-anchor="start" x="642.88" y="-312" font-family="Helvetica,sans-Serif" font-size="10.00">org.xvm.asm.constants.Type</text>
<text xml:space="preserve" text-anchor="middle" x="706.25" y="-300.75" font-family="Helvetica,sans-Serif" font-size="10.00">Constant.getAccess</text>
</a>
</g>
</g>
<!-- Node17&#45;&gt;Node19 -->
<g id="edge35_Node000017_Node000019" class="edge">
<title>Node17&#45;&gt;Node19</title>
<g id="a_edge35_Node000017_Node000019"><a xlink:title=" ">
<path fill="none" stroke="#63b8ff" d="M366.69,-286.62C383.34,-288.25 401.04,-289.89 417.5,-291.25 486.85,-296.97 565.71,-302.08 623.32,-305.55"/>
<polygon fill="#63b8ff" stroke="#63b8ff" points="622.84,-309.03 633.03,-306.14 623.26,-302.04 622.84,-309.03"/>
</a>
</g>
</g>
<!-- Node21 -->
<g id="Node000021" class="node">
<title>Node21</title>
<g id="a_Node000021"><a xlink:href="../../d2/d58/classorg_1_1xvm_1_1asm_1_1constants_1_1_type_constant.html#a23240778e0a7cde7c10ce379be4ddae7" target="_top" xlink:title="Constructor used for deserialization.">
<polygon fill="white" stroke="#666666" points="1189.88,-430.5 1047.12,-430.5 1047.12,-400 1189.88,-400 1189.88,-430.5"/>
<text xml:space="preserve" text-anchor="start" x="1055.12" y="-417" font-family="Helvetica,sans-Serif" font-size="10.00">org.xvm.asm.constants.Type</text>
<text xml:space="preserve" text-anchor="middle" x="1118.5" y="-405.75" font-family="Helvetica,sans-Serif" font-size="10.00">Constant.TypeConstant</text>
</a>
</g>
</g>
<!-- Node17&#45;&gt;Node21 -->
<g id="edge40_Node000017_Node000021" class="edge">
<title>Node17&#45;&gt;Node21</title>
<g id="a_edge40_Node000017_Node000021"><a xlink:title=" ">
<path fill="none" stroke="#63b8ff" d="M366.87,-289.85C372.15,-292.39 377.11,-295.48 381.5,-299.25 414.17,-327.34 382.55,-364.06 417.5,-389.25 466.5,-424.57 861,-420.73 1035.26,-417.24"/>
<polygon fill="#63b8ff" stroke="#63b8ff" points="1035.22,-420.74 1045.15,-417.03 1035.08,-413.74 1035.22,-420.74"/>
</a>
</g>
</g>
<!-- Node17&#45;&gt;Node23 -->
<g id="edge36_Node000017_Node000023" class="edge">
<title>Node17&#45;&gt;Node23</title>
<g id="a_edge36_Node000017_Node000023"><a xlink:title=" ">
<path fill="none" stroke="#63b8ff" d="M326.02,-263.52C343.31,-253.59 364.85,-239.75 381.5,-224.25 401.02,-206.08 395.65,-191.53 417.5,-176.25 419.73,-174.69 422.06,-173.22 424.47,-171.85"/>
<polygon fill="#63b8ff" stroke="#63b8ff" points="426,-175 433.35,-167.37 422.85,-168.75 426,-175"/>
</a>
</g>
</g>
<!-- Node24 -->
<g id="Node000024" class="node">
<title>Node24</title>
<g id="a_Node000024"><a xlink:href="../../dd/d46/enumorg_1_1xvm_1_1asm_1_1_constants_1_1_access.html#a25b50b4850cea0eae03434a0ea761155" target="_top" xlink:title=" ">
<polygon fill="white" stroke="#666666" points="585,-380.5 417.5,-380.5 417.5,-350 585,-350 585,-380.5"/>
<text xml:space="preserve" text-anchor="start" x="425.5" y="-367" font-family="Helvetica,sans-Serif" font-size="10.00">org.xvm.asm.Constants.Access.is</text>
<text xml:space="preserve" text-anchor="middle" x="501.25" y="-355.75" font-family="Helvetica,sans-Serif" font-size="10.00">MoreAccessibleThan</text>
</a>
</g>
</g>
<!-- Node17&#45;&gt;Node24 -->
<g id="edge38_Node000017_Node000024" class="edge">
<title>Node17&#45;&gt;Node24</title>
<g id="a_edge38_Node000017_Node000024"><a xlink:title=" ">
<path fill="none" stroke="#63b8ff" d="M333.09,-294.82C366.55,-308.92 416.04,-329.77 452.48,-345.13"/>
<polygon fill="#63b8ff" stroke="#63b8ff" points="450.9,-348.26 461.47,-348.91 453.62,-341.81 450.9,-348.26"/>
</a>
</g>
</g>
<!-- Node18&#45;&gt;Node4 -->
<g id="edge34_Node000018_Node000004" class="edge">
<title>Node18&#45;&gt;Node4</title>
<g id="a_edge34_Node000018_Node000004"><a xlink:title=" ">
<path fill="none" stroke="#63b8ff" d="M571.06,-233.6C576.06,-230.95 580.78,-227.86 585,-224.25 613.08,-200.2 595.05,-175.59 621,-149.25 632.72,-137.35 648.51,-128.26 663.25,-121.63"/>
<polygon fill="#63b8ff" stroke="#63b8ff" points="664.47,-124.92 672.33,-117.82 661.76,-118.46 664.47,-124.92"/>
</a>
</g>
</g>
<!-- Node18&#45;&gt;Node7 -->
<g id="edge24_Node000018_Node000007" class="edge">
<title>Node18&#45;&gt;Node7</title>
<g id="a_edge24_Node000018_Node000007"><a xlink:title=" ">
<path fill="none" stroke="#63b8ff" d="M567.13,-233.63C573.39,-230.96 579.47,-227.86 585,-224.25 605.59,-210.82 599.08,-193.38 621,-182.25 634.33,-175.49 1038.56,-147.36 1226.56,-134.6"/>
<polygon fill="#63b8ff" stroke="#63b8ff" points="1226.55,-138.11 1236.29,-133.94 1226.08,-131.12 1226.55,-138.11"/>
</a>
</g>
</g>
<!-- Node18&#45;&gt;Node18 -->
<g id="edge23_Node000018_Node000018" class="edge">
<title>Node18&#45;&gt;Node18</title>
<g id="a_edge23_Node000018_Node000018"><a xlink:title=" ">
<path fill="none" stroke="#63b8ff" d="M464.92,-264.99C457.51,-274.06 469.62,-282.5 501.25,-282.5 518.55,-282.5 530.01,-279.97 535.63,-276.2"/>
<polygon fill="#63b8ff" stroke="#63b8ff" points="539.06,-276.93 537.32,-266.48 532.16,-275.73 539.06,-276.93"/>
</a>
</g>
</g>
<!-- Node18&#45;&gt;Node19 -->
<g id="edge25_Node000018_Node000019" class="edge">
<title>Node18&#45;&gt;Node19</title>
<g id="a_edge25_Node000018_Node000019"><a xlink:title=" ">
<path fill="none" stroke="#63b8ff" d="M554.53,-264.96C581.28,-273 614.06,-282.85 642.21,-291.31"/>
<polygon fill="#63b8ff" stroke="#63b8ff" points="641.12,-294.63 651.7,-294.16 643.13,-287.93 641.12,-294.63"/>
</a>
</g>
</g>
<!-- Node20 -->
<g id="Node000020" class="node">
<title>Node20</title>
<g id="a_Node000020"><a xlink:href="../../d2/d58/classorg_1_1xvm_1_1asm_1_1constants_1_1_type_constant.html#ad68cfb98baf3e08419c195e19eec86e2" target="_top" xlink:title="Obtain the underlying type, or the first of two underlying types if the type constant has two underly...">
<polygon fill="white" stroke="#666666" points="984.5,-325.5 841.75,-325.5 841.75,-295 984.5,-295 984.5,-325.5"/>
<text xml:space="preserve" text-anchor="start" x="849.75" y="-312" font-family="Helvetica,sans-Serif" font-size="10.00">org.xvm.asm.constants.Type</text>
<text xml:space="preserve" text-anchor="middle" x="913.12" y="-300.75" font-family="Helvetica,sans-Serif" font-size="10.00">Constant.getUnderlyingType</text>
</a>
</g>
</g>
<!-- Node18&#45;&gt;Node20 -->
<g id="edge30_Node000018_Node000020" class="edge">
<title>Node18&#45;&gt;Node20</title>
<g id="a_edge30_Node000018_Node000020"><a xlink:title=" ">
<path fill="none" stroke="#63b8ff" d="M585.38,-258.34C643.31,-265.05 722.3,-274.95 791.5,-286.25 804.05,-288.3 817.29,-290.69 830.22,-293.16"/>
<polygon fill="#63b8ff" stroke="#63b8ff" points="829.5,-296.59 839.99,-295.05 830.84,-289.72 829.5,-296.59"/>
</a>
</g>
</g>
<!-- Node22 -->
<g id="Node000022" class="node">
<title>Node22</title>
<g id="a_Node000022"><a xlink:href="../../d2/d58/classorg_1_1xvm_1_1asm_1_1constants_1_1_type_constant.html#a25127a0b1e9474337f2e4d85572d75cd" target="_top" xlink:title=" ">
<polygon fill="white" stroke="#666666" points="777.62,-221.5 634.88,-221.5 634.88,-191 777.62,-191 777.62,-221.5"/>
<text xml:space="preserve" text-anchor="start" x="642.88" y="-208" font-family="Helvetica,sans-Serif" font-size="10.00">org.xvm.asm.constants.Type</text>
<text xml:space="preserve" text-anchor="middle" x="706.25" y="-196.75" font-family="Helvetica,sans-Serif" font-size="10.00">Constant.isAccessSpecified</text>
</a>
</g>
</g>
<!-- Node18&#45;&gt;Node22 -->
<g id="edge31_Node000018_Node000022" class="edge">
<title>Node18&#45;&gt;Node22</title>
<g id="a_edge31_Node000018_Node000022"><a xlink:title=" ">
<path fill="none" stroke="#63b8ff" d="M576.4,-233.54C591.71,-230.3 607.92,-226.87 623.48,-223.57"/>
<polygon fill="#63b8ff" stroke="#63b8ff" points="624.14,-227.01 633.2,-221.51 622.69,-220.16 624.14,-227.01"/>
</a>
</g>
</g>
<!-- Node19&#45;&gt;Node19 -->
<g id="edge26_Node000019_Node000019" class="edge">
<title>Node19&#45;&gt;Node19</title>
<g id="a_edge26_Node000019_Node000019"><a xlink:title=" ">
<path fill="none" stroke="#63b8ff" d="M669.92,-325.99C662.51,-335.06 674.62,-343.5 706.25,-343.5 723.55,-343.5 735.01,-340.97 740.63,-337.2"/>
<polygon fill="#63b8ff" stroke="#63b8ff" points="744.06,-337.93 742.32,-327.48 737.16,-336.73 744.06,-337.93"/>
</a>
</g>
</g>
<!-- Node19&#45;&gt;Node20 -->
<g id="edge27_Node000019_Node000020" class="edge">
<title>Node19&#45;&gt;Node20</title>
<g id="a_edge27_Node000019_Node000020"><a xlink:title=" ">
<path fill="none" stroke="#63b8ff" d="M778.04,-310.25C794.84,-310.25 812.89,-310.25 830.13,-310.25"/>
<polygon fill="#63b8ff" stroke="#63b8ff" points="829.82,-313.75 839.82,-310.25 829.82,-306.75 829.82,-313.75"/>
</a>
</g>
</g>
<!-- Node20&#45;&gt;Node21 -->
<g id="edge28_Node000020_Node000021" class="edge">
<title>Node20&#45;&gt;Node21</title>
<g id="a_edge28_Node000020_Node000021"><a xlink:title=" ">
<path fill="none" stroke="#63b8ff" d="M937.53,-325.74C961.39,-341.16 999.76,-364.97 1034.75,-382.25 1044.02,-386.83 1054.08,-391.26 1063.9,-395.32"/>
<polygon fill="#63b8ff" stroke="#63b8ff" points="1062.42,-398.5 1073.01,-399 1065.05,-392.01 1062.42,-398.5"/>
</a>
</g>
</g>
<!-- Node21&#45;&gt;Node12 -->
<g id="edge29_Node000021_Node000012" class="edge">
<title>Node21&#45;&gt;Node12</title>
<g id="a_edge29_Node000021_Node000012"><a xlink:title=" ">
<path fill="none" stroke="#63b8ff" d="M1180.5,-399.51C1209.42,-392.05 1243.53,-383.24 1270.9,-376.18"/>
<polygon fill="#63b8ff" stroke="#63b8ff" points="1271.53,-379.63 1280.34,-373.74 1269.78,-372.85 1271.53,-379.63"/>
</a>
</g>
</g>
<!-- Node22&#45;&gt;Node20 -->
<g id="edge32_Node000022_Node000020" class="edge">
<title>Node22&#45;&gt;Node20</title>
<g id="a_edge32_Node000022_Node000020"><a xlink:title=" ">
<path fill="none" stroke="#63b8ff" d="M739.52,-221.99C755.68,-230.42 775.21,-241.48 791.5,-253.25 809.1,-265.96 808.55,-275.67 827.5,-286.25 829.86,-287.57 832.3,-288.82 834.8,-290.01"/>
<polygon fill="#63b8ff" stroke="#63b8ff" points="833.37,-293.2 843.94,-293.93 836.13,-286.77 833.37,-293.2"/>
</a>
</g>
</g>
<!-- Node22&#45;&gt;Node22 -->
<g id="edge33_Node000022_Node000022" class="edge">
<title>Node22&#45;&gt;Node22</title>
<g id="a_edge33_Node000022_Node000022"><a xlink:title=" ">
<path fill="none" stroke="#63b8ff" d="M669.92,-221.99C662.51,-231.06 674.62,-239.5 706.25,-239.5 723.55,-239.5 735.01,-236.97 740.63,-233.2"/>
<polygon fill="#63b8ff" stroke="#63b8ff" points="744.06,-233.93 742.32,-223.48 737.16,-232.73 744.06,-233.93"/>
</a>
</g>
</g>
<!-- Node23&#45;&gt;Node15 -->
<g id="edge37_Node000023_Node000015" class="edge">
<title>Node23&#45;&gt;Node15</title>
<g id="a_edge37_Node000023_Node000015"><a xlink:title=" ">
<path fill="none" stroke="#63b8ff" d="M526.28,-135.71C549.59,-121.32 586.42,-100.37 621,-88.25 687.69,-64.87 766.65,-50.74 825.5,-42.67"/>
<polygon fill="#63b8ff" stroke="#63b8ff" points="825.68,-46.18 835.12,-41.38 824.75,-39.24 825.68,-46.18"/>
</a>
</g>
</g>
<!-- Node25 -->
<g id="Node000025" class="node">
<title>Node25</title>
<g id="a_Node000025"><a xlink:href="../../dd/d46/enumorg_1_1xvm_1_1asm_1_1_constants_1_1_access.html#a9f6df8fffa90a4ad07c777243cc7f319" target="_top" xlink:title=" ">
<polygon fill="white" stroke="#666666" points="786.25,-392.5 626.25,-392.5 626.25,-362 786.25,-362 786.25,-392.5"/>
<text xml:space="preserve" text-anchor="start" x="634.25" y="-379" font-family="Helvetica,sans-Serif" font-size="10.00">org.xvm.asm.Constants.Access.</text>
<text xml:space="preserve" text-anchor="middle" x="706.25" y="-367.75" font-family="Helvetica,sans-Serif" font-size="10.00">Access</text>
</a>
</g>
</g>
<!-- Node24&#45;&gt;Node25 -->
<g id="edge39_Node000024_Node000025" class="edge">
<title>Node24&#45;&gt;Node25</title>
<g id="a_edge39_Node000024_Node000025"><a xlink:title=" ">
<path fill="none" stroke="#63b8ff" d="M585.4,-370.17C595,-370.73 604.83,-371.31 614.53,-371.89"/>
<polygon fill="#63b8ff" stroke="#63b8ff" points="614.13,-375.37 624.32,-372.47 614.54,-368.38 614.13,-375.37"/>
</a>
</g>
</g>
<!-- Node26&#45;&gt;Node21 -->
<g id="edge47_Node000026_Node000021" class="edge">
<title>Node26&#45;&gt;Node21</title>
<g id="a_edge47_Node000026_Node000021"><a xlink:title=" ">
<path fill="none" stroke="#63b8ff" d="M751.36,-522.93C810.15,-541.18 916.34,-564.82 998.75,-531.25 1010.69,-526.38 1064,-471.61 1094.98,-439.1"/>
<polygon fill="#63b8ff" stroke="#63b8ff" points="1097.31,-441.72 1101.66,-432.06 1092.23,-436.9 1097.31,-441.72"/>
</a>
</g>
</g>
<!-- Node27 -->
<g id="Node000027" class="node">
<title>Node27</title>
<g id="a_Node000027"><a xlink:href="../../d2/d58/classorg_1_1xvm_1_1asm_1_1constants_1_1_type_constant.html#ab0807f44ead2d0fbda5907a49cef9b07" target="_top" xlink:title="This method allows each particular type of constant to compare its detailed information with another ...">
<polygon fill="white" stroke="#666666" points="1189.88,-541.5 1047.12,-541.5 1047.12,-511 1189.88,-511 1189.88,-541.5"/>
<text xml:space="preserve" text-anchor="start" x="1055.12" y="-528" font-family="Helvetica,sans-Serif" font-size="10.00">org.xvm.asm.constants.Type</text>
<text xml:space="preserve" text-anchor="middle" x="1118.5" y="-516.75" font-family="Helvetica,sans-Serif" font-size="10.00">Constant.compareDetails</text>
</a>
</g>
</g>
<!-- Node26&#45;&gt;Node27 -->
<g id="edge42_Node000026_Node000027" class="edge">
<title>Node26&#45;&gt;Node27</title>
<g id="a_edge42_Node000026_Node000027"><a xlink:title=" ">
<path fill="none" stroke="#63b8ff" d="M731.87,-522.93C755.38,-536.9 792.34,-556.34 827.5,-564.25 901.75,-580.96 923.55,-575.99 998.75,-564.25 1022.15,-560.6 1047.25,-553.12 1068.31,-545.76"/>
<polygon fill="#63b8ff" stroke="#63b8ff" points="1069.27,-549.14 1077.5,-542.46 1066.91,-542.55 1069.27,-549.14"/>
</a>
</g>
</g>
<!-- Node28 -->
<g id="Node000028" class="node">
<title>Node28</title>
<g id="a_Node000028"><a xlink:href="../../d2/d58/classorg_1_1xvm_1_1asm_1_1constants_1_1_type_constant.html#a1cdacc3900bb59a319da001c4a286afb" target="_top" xlink:title="Determine the enumerated constant format classification.">
<polygon fill="white" stroke="#666666" points="984.5,-473.5 841.75,-473.5 841.75,-443 984.5,-443 984.5,-473.5"/>
<text xml:space="preserve" text-anchor="start" x="849.75" y="-460" font-family="Helvetica,sans-Serif" font-size="10.00">org.xvm.asm.constants.Type</text>
<text xml:space="preserve" text-anchor="middle" x="913.12" y="-448.75" font-family="Helvetica,sans-Serif" font-size="10.00">Constant.getFormat</text>
</a>
</g>
</g>
<!-- Node26&#45;&gt;Node28 -->
<g id="edge44_Node000026_Node000028" class="edge">
<title>Node26&#45;&gt;Node28</title>
<g id="a_edge44_Node000026_Node000028"><a xlink:title=" ">
<path fill="none" stroke="#63b8ff" d="M772.92,-491.54C792.86,-486.77 814.95,-481.49 835.54,-476.57"/>
<polygon fill="#63b8ff" stroke="#63b8ff" points="836.09,-480.03 845,-474.3 834.46,-473.23 836.09,-480.03"/>
</a>
</g>
</g>
<!-- Node29 -->
<g id="Node000029" class="node">
<title>Node29</title>
<g id="a_Node000029"><a xlink:href="../../d9/d57/classorg_1_1xvm_1_1asm_1_1constants_1_1_unresolved_type_constant.html#a7532a962cc02820fb6dbafe3364fa617" target="_top" xlink:title=" ">
<polygon fill="white" stroke="#666666" points="998.75,-522.5 827.5,-522.5 827.5,-492 998.75,-492 998.75,-522.5"/>
<text xml:space="preserve" text-anchor="start" x="835.5" y="-509" font-family="Helvetica,sans-Serif" font-size="10.00">org.xvm.asm.constants.Unresolved</text>
<text xml:space="preserve" text-anchor="middle" x="913.12" y="-497.75" font-family="Helvetica,sans-Serif" font-size="10.00">TypeConstant.getResolvedType</text>
</a>
</g>
</g>
<!-- Node26&#45;&gt;Node29 -->
<g id="edge45_Node000026_Node000029" class="edge">
<title>Node26&#45;&gt;Node29</title>
<g id="a_edge45_Node000026_Node000029"><a xlink:title=" ">
<path fill="none" stroke="#63b8ff" d="M778.04,-507.25C790.3,-507.25 803.22,-507.25 816.02,-507.25"/>
<polygon fill="#63b8ff" stroke="#63b8ff" points="815.69,-510.75 825.69,-507.25 815.69,-503.75 815.69,-510.75"/>
</a>
</g>
</g>
<!-- Node27&#45;&gt;Node12 -->
<g id="edge43_Node000027_Node000012" class="edge">
<title>Node27&#45;&gt;Node12</title>
<g id="a_edge43_Node000027_Node000012"><a xlink:title=" ">
<path fill="none" stroke="#63b8ff" d="M1138.82,-510.62C1176.76,-479.93 1260.7,-412.03 1299.97,-380.26"/>
<polygon fill="#63b8ff" stroke="#63b8ff" points="1301.76,-383.32 1307.33,-374.31 1297.36,-377.87 1301.76,-383.32"/>
</a>
</g>
</g>
<!-- Node29&#45;&gt;Node21 -->
<g id="edge46_Node000029_Node000021" class="edge">
<title>Node29&#45;&gt;Node21</title>
<g id="a_edge46_Node000029_Node000021"><a xlink:title=" ">
<path fill="none" stroke="#63b8ff" d="M973.46,-491.59C982.05,-488.78 990.71,-485.65 998.75,-482.25 1028.75,-469.55 1060.82,-451.14 1084.06,-436.83"/>
<polygon fill="#63b8ff" stroke="#63b8ff" points="1085.84,-439.84 1092.47,-431.58 1082.14,-433.9 1085.84,-439.84"/>
</a>
</g>
</g>
</g>
</svg>
