<?xml version="1.0" encoding="UTF-8" standalone="no"?>
<!DOCTYPE svg PUBLIC "-//W3C//DTD SVG 1.1//EN"
 "http://www.w3.org/Graphics/SVG/1.1/DTD/svg11.dtd">
<!-- Generated by graphviz version 14.1.3 (20260303.0454)
 -->
<!-- Title: org.xvm.compiler.Lexer.eatTemplateExpression Pages: 1 -->
<svg width="1123pt" height="926pt"
 viewBox="0.00 0.00 1123.00 926.00" xmlns="http://www.w3.org/2000/svg" xmlns:xlink="http://www.w3.org/1999/xlink">
<g id="page0,1_graph0" class="graph" transform="scale(1 1) rotate(0) translate(4 921.88)">
<title>org.xvm.compiler.Lexer.eatTemplateExpression</title>
<!-- Node1 -->
<g id="Node000001" class="node">
<title>Node1</title>
<g id="a_Node000001"><a xlink:title="Eat an inline template expression that begins with a &#39;{&#39; and ends with a &#39;}&#39;.">
<polygon fill="#999999" stroke="#666666" points="133,-828.5 0,-828.5 0,-798 133,-798 133,-828.5"/>
<text xml:space="preserve" text-anchor="start" x="8" y="-815" font-family="Helvetica,sans-Serif" font-size="10.00">org.xvm.compiler.Lexer.eat</text>
<text xml:space="preserve" text-anchor="middle" x="66.5" y="-803.75" font-family="Helvetica,sans-Serif" font-size="10.00">TemplateExpression</text>
</a>
</g>
</g>
<!-- Node2 -->
<g id="Node000002" class="node">
<title>Node2</title>
<g id="a_Node000002"><a xlink:href="../../d5/d95/classorg_1_1xvm_1_1compiler_1_1_source.html#a721e9db31df23346b6719edce761540b" target="_top" xlink:title="Determine the line number from a previously returned position token.">
<polygon fill="white" stroke="#666666" points="353,-917.88 169,-917.88 169,-898.62 353,-898.62 353,-917.88"/>
<text xml:space="preserve" text-anchor="middle" x="261" y="-904.38" font-family="Helvetica,sans-Serif" font-size="10.00">org.xvm.compiler.Source.calculateLine</text>
</a>
</g>
</g>
<!-- Node1&#45;&gt;Node2 -->
<g id="edge1_Node000001_Node000002" class="edge">
<title>Node1&#45;&gt;Node2</title>
<g id="a_edge1_Node000001_Node000002"><a xlink:title=" ">
<path fill="none" stroke="#63b8ff" d="M85.36,-828.71C104.75,-844.75 137.2,-869.51 169,-884.25 178.25,-888.54 188.4,-892.16 198.46,-895.19"/>
<polygon fill="#63b8ff" stroke="#63b8ff" points="197.27,-898.49 207.84,-897.84 199.17,-891.76 197.27,-898.49"/>
</a>
</g>
</g>
<!-- Node3 -->
<g id="Node000003" class="node">
<title>Node3</title>
<g id="a_Node000003"><a xlink:href="../../db/db5/classorg_1_1xvm_1_1compiler_1_1_token.html#a1cb8a54437f4fc1d61fbdd5ca1c2abab" target="_top" xlink:title="Determine the ending position (exclusive) in the source for this token.">
<polygon fill="white" stroke="#666666" points="712.75,-893.5 576.75,-893.5 576.75,-863 712.75,-863 712.75,-893.5"/>
<text xml:space="preserve" text-anchor="start" x="584.75" y="-880" font-family="Helvetica,sans-Serif" font-size="10.00">org.xvm.compiler.Token.get</text>
<text xml:space="preserve" text-anchor="middle" x="644.75" y="-868.75" font-family="Helvetica,sans-Serif" font-size="10.00">EndPosition</text>
</a>
</g>
</g>
<!-- Node1&#45;&gt;Node3 -->
<g id="edge2_Node000001_Node000003" class="edge">
<title>Node1&#45;&gt;Node3</title>
<g id="a_edge2_Node000001_Node000003"><a xlink:title=" ">
<path fill="none" stroke="#63b8ff" d="M133.35,-828.75C145.17,-831.19 157.41,-833.48 169,-835.25 307.61,-856.47 470.7,-868.43 565.15,-874.1"/>
<polygon fill="#63b8ff" stroke="#63b8ff" points="564.91,-877.59 575.1,-874.69 565.32,-870.61 564.91,-877.59"/>
</a>
</g>
</g>
<!-- Node4 -->
<g id="Node000004" class="node">
<title>Node4</title>
<g id="a_Node000004"><a xlink:href="../../db/db5/classorg_1_1xvm_1_1compiler_1_1_token.html#a66a941b6a9ad91b2a61d08b626f9fb3b" target="_top" xlink:title="Determine the identity of the token.">
<polygon fill="white" stroke="#666666" points="716.88,-844.88 572.62,-844.88 572.62,-825.62 716.88,-825.62 716.88,-844.88"/>
<text xml:space="preserve" text-anchor="middle" x="644.75" y="-831.38" font-family="Helvetica,sans-Serif" font-size="10.00">org.xvm.compiler.Token.getId</text>
</a>
</g>
</g>
<!-- Node1&#45;&gt;Node4 -->
<g id="edge3_Node000001_Node000004" class="edge">
<title>Node1&#45;&gt;Node4</title>
<g id="a_edge3_Node000001_Node000004"><a xlink:title=" ">
<path fill="none" stroke="#63b8ff" d="M133.29,-816.62C145.17,-817.19 157.45,-817.76 169,-818.25 306.38,-824.09 466.18,-829.54 560.93,-832.62"/>
<polygon fill="#63b8ff" stroke="#63b8ff" points="560.53,-836.11 570.64,-832.94 560.76,-829.11 560.53,-836.11"/>
</a>
</g>
</g>
<!-- Node5 -->
<g id="Node000005" class="node">
<title>Node5</title>
<g id="a_Node000005"><a xlink:href="../../db/db5/classorg_1_1xvm_1_1compiler_1_1_token.html#a1c5057511e8bcf0a4b91dd081d6dc3c2" target="_top" xlink:title="Determine the starting position in the source at which this token occurs.">
<polygon fill="white" stroke="#666666" points="712.75,-807.5 576.75,-807.5 576.75,-777 712.75,-777 712.75,-807.5"/>
<text xml:space="preserve" text-anchor="start" x="584.75" y="-794" font-family="Helvetica,sans-Serif" font-size="10.00">org.xvm.compiler.Token.get</text>
<text xml:space="preserve" text-anchor="middle" x="644.75" y="-782.75" font-family="Helvetica,sans-Serif" font-size="10.00">StartPosition</text>
</a>
</g>
</g>
<!-- Node1&#45;&gt;Node5 -->
<g id="edge4_Node000001_Node000005" class="edge">
<title>Node1&#45;&gt;Node5</title>
<g id="a_edge4_Node000001_Node000005"><a xlink:title=" ">
<path fill="none" stroke="#63b8ff" d="M133.32,-810.85C240.1,-806.96 450.63,-799.29 565.12,-795.12"/>
<polygon fill="#63b8ff" stroke="#63b8ff" points="565.19,-798.62 575.05,-794.75 564.93,-791.62 565.19,-798.62"/>
</a>
</g>
</g>
<!-- Node6 -->
<g id="Node000006" class="node">
<title>Node6</title>
<g id="a_Node000006"><a xlink:href="../../db/db5/classorg_1_1xvm_1_1compiler_1_1_token.html#aa04746d39a8788ba7e1019350aefae54" target="_top" xlink:title="Determine if this token precedes whitespace in the source.">
<polygon fill="white" stroke="#666666" points="330.12,-766.5 191.88,-766.5 191.88,-736 330.12,-736 330.12,-766.5"/>
<text xml:space="preserve" text-anchor="start" x="199.88" y="-753" font-family="Helvetica,sans-Serif" font-size="10.00">org.xvm.compiler.Token.has</text>
<text xml:space="preserve" text-anchor="middle" x="261" y="-741.75" font-family="Helvetica,sans-Serif" font-size="10.00">TrailingWhitespace</text>
</a>
</g>
</g>
<!-- Node1&#45;&gt;Node6 -->
<g id="edge5_Node000001_Node000006" class="edge">
<title>Node1&#45;&gt;Node6</title>
<g id="a_edge5_Node000001_Node000006"><a xlink:title=" ">
<path fill="none" stroke="#63b8ff" d="M115.5,-797.58C132.4,-792.08 151.54,-785.87 169,-780.25 179.07,-777.01 189.78,-773.58 200.18,-770.26"/>
<polygon fill="#63b8ff" stroke="#63b8ff" points="200.96,-773.68 209.42,-767.31 198.83,-767.01 200.96,-773.68"/>
</a>
</g>
</g>
<!-- Node7 -->
<g id="Node000007" class="node">
<title>Node7</title>
<g id="a_Node000007"><a xlink:href="../../d3/d58/classorg_1_1xvm_1_1compiler_1_1_lexer.html#a27068a1be6240ba46bc1a654faba7e83" target="_top" xlink:title=" ">
<polygon fill="white" stroke="#666666" points="330.12,-449.88 191.88,-449.88 191.88,-430.62 330.12,-430.62 330.12,-449.88"/>
<text xml:space="preserve" text-anchor="middle" x="261" y="-436.38" font-family="Helvetica,sans-Serif" font-size="10.00">org.xvm.compiler.Lexer.next</text>
</a>
</g>
</g>
<!-- Node1&#45;&gt;Node7 -->
<g id="edge6_Node000001_Node000007" class="edge">
<title>Node1&#45;&gt;Node7</title>
<g id="a_edge6_Node000001_Node000007"><a xlink:title=" ">
<path fill="none" stroke="#63b8ff" d="M75.53,-797.7C106.13,-738.39 215.5,-526.47 249.7,-460.2"/>
<polygon fill="#63b8ff" stroke="#63b8ff" points="252.68,-462.06 254.16,-451.57 246.46,-458.85 252.68,-462.06"/>
</a>
</g>
</g>
<!-- Node8 -->
<g id="Node000008" class="node">
<title>Node8</title>
<g id="a_Node000008"><a xlink:href="../../d3/d58/classorg_1_1xvm_1_1compiler_1_1_lexer.html#a8b840f238ad8348a603c580babbbf323" target="_top" xlink:title="Parse a single token.">
<polygon fill="white" stroke="#666666" points="526.12,-476.5 393.12,-476.5 393.12,-446 526.12,-446 526.12,-476.5"/>
<text xml:space="preserve" text-anchor="start" x="401.12" y="-463" font-family="Helvetica,sans-Serif" font-size="10.00">org.xvm.compiler.Lexer.eat</text>
<text xml:space="preserve" text-anchor="middle" x="459.62" y="-451.75" font-family="Helvetica,sans-Serif" font-size="10.00">Token</text>
</a>
</g>
</g>
<!-- Node7&#45;&gt;Node8 -->
<g id="edge7_Node000007_Node000008" class="edge">
<title>Node7&#45;&gt;Node8</title>
<g id="a_edge7_Node000007_Node000008"><a xlink:title=" ">
<path fill="none" stroke="#63b8ff" d="M330.49,-447.57C346.88,-449.32 364.49,-451.2 381.25,-452.99"/>
<polygon fill="#63b8ff" stroke="#63b8ff" points="380.87,-456.47 391.19,-454.05 381.62,-449.51 380.87,-456.47"/>
</a>
</g>
</g>
<!-- Node30 -->
<g id="Node000030" class="node">
<title>Node30</title>
<g id="a_Node000030"><a xlink:href="../../d3/d58/classorg_1_1xvm_1_1compiler_1_1_lexer.html#a31b6e1f09846d4f8d652f96b9fa3bc72" target="_top" xlink:title="Eat the characters defined as whitespace, which include line terminators and the file terminator.">
<polygon fill="white" stroke="#666666" points="711.25,-30.5 578.25,-30.5 578.25,0 711.25,0 711.25,-30.5"/>
<text xml:space="preserve" text-anchor="start" x="586.25" y="-17" font-family="Helvetica,sans-Serif" font-size="10.00">org.xvm.compiler.Lexer.eat</text>
<text xml:space="preserve" text-anchor="middle" x="644.75" y="-5.75" font-family="Helvetica,sans-Serif" font-size="10.00">Whitespace</text>
</a>
</g>
</g>
<!-- Node7&#45;&gt;Node30 -->
<g id="edge44_Node000007_Node000030" class="edge">
<title>Node7&#45;&gt;Node30</title>
<g id="a_edge44_Node000007_Node000030"><a xlink:title=" ">
<path fill="none" stroke="#63b8ff" d="M330.4,-439.04C400.73,-436.24 503.61,-427.31 530.25,-399.25 585.46,-341.11 515.88,-102.63 566.25,-40.25 567.17,-39.11 568.15,-38.01 569.18,-36.97"/>
<polygon fill="#63b8ff" stroke="#63b8ff" points="571.14,-39.89 576.68,-30.86 566.72,-34.46 571.14,-39.89"/>
</a>
</g>
</g>
<!-- Node31 -->
<g id="Node000031" class="node">
<title>Node31</title>
<g id="a_Node000031"><a xlink:href="../../db/db5/classorg_1_1xvm_1_1compiler_1_1_token.html#ac6e35e2db36f323a939ba5586a87166b" target="_top" xlink:title="Record whitespace information onto the token.">
<polygon fill="white" stroke="#666666" points="530.25,-390.5 389,-390.5 389,-360 530.25,-360 530.25,-390.5"/>
<text xml:space="preserve" text-anchor="start" x="397" y="-377" font-family="Helvetica,sans-Serif" font-size="10.00">org.xvm.compiler.Token.note</text>
<text xml:space="preserve" text-anchor="middle" x="459.62" y="-365.75" font-family="Helvetica,sans-Serif" font-size="10.00">Whitespace</text>
</a>
</g>
</g>
<!-- Node7&#45;&gt;Node31 -->
<g id="edge47_Node000007_Node000031" class="edge">
<title>Node7&#45;&gt;Node31</title>
<g id="a_edge47_Node000007_Node000031"><a xlink:title=" ">
<path fill="none" stroke="#63b8ff" d="M292.29,-430.24C320.99,-420.75 364.87,-406.24 400.35,-394.51"/>
<polygon fill="#63b8ff" stroke="#63b8ff" points="401.23,-397.91 409.63,-391.45 399.03,-391.26 401.23,-397.91"/>
</a>
</g>
</g>
<!-- Node8&#45;&gt;Node3 -->
<g id="edge27_Node000008_Node000003" class="edge">
<title>Node8&#45;&gt;Node3</title>
<g id="a_edge27_Node000008_Node000003"><a xlink:title=" ">
<path fill="none" stroke="#63b8ff" d="M462.78,-476.77C472.19,-542.56 511.73,-797.63 566.25,-854.25 566.63,-854.64 567.01,-855.03 567.4,-855.41"/>
<polygon fill="#63b8ff" stroke="#63b8ff" points="565.2,-858.13 575.21,-861.57 569.53,-852.63 565.2,-858.13"/>
</a>
</g>
</g>
<!-- Node8&#45;&gt;Node4 -->
<g id="edge28_Node000008_Node000004" class="edge">
<title>Node8&#45;&gt;Node4</title>
<g id="a_edge28_Node000008_Node000004"><a xlink:title=" ">
<path fill="none" stroke="#63b8ff" d="M460.2,-476.76C459.57,-531.85 465.21,-720.02 566.25,-816.25 567.32,-817.27 568.44,-818.24 569.6,-819.16"/>
<polygon fill="#63b8ff" stroke="#63b8ff" points="567.57,-822.02 577.88,-824.46 571.35,-816.12 567.57,-822.02"/>
</a>
</g>
</g>
<!-- Node8&#45;&gt;Node5 -->
<g id="edge30_Node000008_Node000005" class="edge">
<title>Node8&#45;&gt;Node5</title>
<g id="a_edge30_Node000008_Node000005"><a xlink:title=" ">
<path fill="none" stroke="#63b8ff" d="M461.31,-476.81C464.33,-526.53 480.55,-683.27 566.25,-767.25 567.3,-768.28 568.39,-769.27 569.53,-770.21"/>
<polygon fill="#63b8ff" stroke="#63b8ff" points="567.39,-772.99 577.6,-775.84 571.39,-767.25 567.39,-772.99"/>
</a>
</g>
</g>
<!-- Node9 -->
<g id="Node000009" class="node">
<title>Node9</title>
<g id="a_Node000009"><a xlink:href="../../d3/d58/classorg_1_1xvm_1_1compiler_1_1_lexer.html#a5cc0ab5a2d50f866eebd65da95a9aacf" target="_top" xlink:title="Parse the binary literal value.">
<polygon fill="white" stroke="#666666" points="711.25,-303.5 578.25,-303.5 578.25,-273 711.25,-273 711.25,-303.5"/>
<text xml:space="preserve" text-anchor="start" x="586.25" y="-290" font-family="Helvetica,sans-Serif" font-size="10.00">org.xvm.compiler.Lexer.eat</text>
<text xml:space="preserve" text-anchor="middle" x="644.75" y="-278.75" font-family="Helvetica,sans-Serif" font-size="10.00">BinaryLiteral</text>
</a>
</g>
</g>
<!-- Node8&#45;&gt;Node9 -->
<g id="edge8_Node000008_Node000009" class="edge">
<title>Node8&#45;&gt;Node9</title>
<g id="a_edge8_Node000008_Node000009"><a xlink:title=" ">
<path fill="none" stroke="#63b8ff" d="M513.01,-445.53C519.41,-441.94 525.4,-437.57 530.25,-432.25 566.35,-392.69 529.43,-356.14 566.25,-317.25 568.82,-314.54 571.66,-312.08 574.7,-309.85"/>
<polygon fill="#63b8ff" stroke="#63b8ff" points="576.43,-312.89 583.05,-304.62 572.71,-306.96 576.43,-312.89"/>
</a>
</g>
</g>
<!-- Node10 -->
<g id="Node000010" class="node">
<title>Node10</title>
<g id="a_Node000010"><a xlink:href="../../d5/d95/classorg_1_1xvm_1_1compiler_1_1_source.html#a504a14f4ae461bbdd8b41d26a41eccda" target="_top" xlink:title="Obtain a token that represents the current location within the source.">
<polygon fill="white" stroke="#666666" points="907.25,-398.5 766.75,-398.5 766.75,-368 907.25,-368 907.25,-398.5"/>
<text xml:space="preserve" text-anchor="start" x="774.75" y="-385" font-family="Helvetica,sans-Serif" font-size="10.00">org.xvm.compiler.Source.get</text>
<text xml:space="preserve" text-anchor="middle" x="837" y="-373.75" font-family="Helvetica,sans-Serif" font-size="10.00">Position</text>
</a>
</g>
</g>
<!-- Node8&#45;&gt;Node10 -->
<g id="edge29_Node000008_Node000010" class="edge">
<title>Node8&#45;&gt;Node10</title>
<g id="a_edge29_Node000008_Node000010"><a xlink:title=" ">
<path fill="none" stroke="#63b8ff" d="M510.95,-445.66C517.97,-442.02 524.67,-437.6 530.25,-432.25 557.53,-406.11 534.38,-375.53 566.25,-355.25 635.66,-311.08 735.99,-340.25 792.7,-363.23"/>
<polygon fill="#63b8ff" stroke="#63b8ff" points="791.12,-366.36 801.7,-366.99 793.82,-359.9 791.12,-366.36"/>
</a>
</g>
</g>
<!-- Node12 -->
<g id="Node000012" class="node">
<title>Node12</title>
<g id="a_Node000012"><a xlink:href="../../d5/d95/classorg_1_1xvm_1_1compiler_1_1_source.html#ae1c6e3ec7d223c11b82957a8e65ef8a0" target="_top" xlink:title="Determine if there are more characters in the source.">
<polygon fill="white" stroke="#666666" points="1114.5,-138.88 950.75,-138.88 950.75,-119.62 1114.5,-119.62 1114.5,-138.88"/>
<text xml:space="preserve" text-anchor="middle" x="1032.62" y="-125.38" font-family="Helvetica,sans-Serif" font-size="10.00">org.xvm.compiler.Source.hasNext</text>
</a>
</g>
</g>
<!-- Node8&#45;&gt;Node12 -->
<g id="edge32_Node000008_Node000012" class="edge">
<title>Node8&#45;&gt;Node12</title>
<g id="a_edge32_Node000008_Node000012"><a xlink:title=" ">
<path fill="none" stroke="#63b8ff" d="M513.54,-445.67C519.94,-441.85 525.79,-437.12 530.25,-431.25 601.16,-338.07 486.4,-255.9 566.25,-170.25 614.87,-118.1 665.89,-179.61 723.25,-137.25 749.82,-117.63 730.8,-89.02 759.25,-72.25 818.79,-37.16 847.41,-56.7 914.75,-72.25 948.89,-80.13 984.6,-99.41 1007.42,-113.37"/>
<polygon fill="#63b8ff" stroke="#63b8ff" points="1005.34,-116.19 1015.67,-118.54 1009.06,-110.26 1005.34,-116.19"/>
</a>
</g>
</g>
<!-- Node14 -->
<g id="Node000014" class="node">
<title>Node14</title>
<g id="a_Node000014"><a xlink:href="../../d5/d95/classorg_1_1xvm_1_1compiler_1_1_source.html#a045e25fdb06e5edd4f6e2018748fafeb" target="_top" xlink:title="Obtain the next character of the source.">
<polygon fill="white" stroke="#666666" points="1105.5,-303.88 959.75,-303.88 959.75,-284.62 1105.5,-284.62 1105.5,-303.88"/>
<text xml:space="preserve" text-anchor="middle" x="1032.62" y="-290.38" font-family="Helvetica,sans-Serif" font-size="10.00">org.xvm.compiler.Source.next</text>
</a>
</g>
</g>
<!-- Node8&#45;&gt;Node14 -->
<g id="edge33_Node000008_Node000014" class="edge">
<title>Node8&#45;&gt;Node14</title>
<g id="a_edge33_Node000008_Node000014"><a xlink:title=" ">
<path fill="none" stroke="#63b8ff" d="M505.41,-445.64C514.06,-441.63 522.76,-436.83 530.25,-431.25 550.24,-416.36 543.67,-398.8 566.25,-388.25 629.47,-358.73 655.52,-371.47 723.25,-388.25 740.81,-392.6 741.69,-402.9 759.25,-407.25 826.33,-423.87 852.94,-438.16 914.75,-407.25 938.6,-395.32 932.21,-378.42 950.75,-359.25 968.34,-341.06 990.97,-323.27 1007.81,-310.91"/>
<polygon fill="#63b8ff" stroke="#63b8ff" points="1009.69,-313.87 1015.76,-305.18 1005.6,-308.19 1009.69,-313.87"/>
</a>
</g>
</g>
<!-- Node15 -->
<g id="Node000015" class="node">
<title>Node15</title>
<g id="a_Node000015"><a xlink:href="../../d5/d95/classorg_1_1xvm_1_1compiler_1_1_source.html#acdbed6fa4114a513bea65098f3c3bbe3" target="_top" xlink:title="Undo a previously made call to the next() method by &quot;rewinding&quot; one character.">
<polygon fill="white" stroke="#666666" points="914.75,-100.88 759.25,-100.88 759.25,-81.62 914.75,-81.62 914.75,-100.88"/>
<text xml:space="preserve" text-anchor="middle" x="837" y="-87.38" font-family="Helvetica,sans-Serif" font-size="10.00">org.xvm.compiler.Source.rewind</text>
</a>
</g>
</g>
<!-- Node8&#45;&gt;Node15 -->
<g id="edge36_Node000008_Node000015" class="edge">
<title>Node8&#45;&gt;Node15</title>
<g id="a_edge36_Node000008_Node000015"><a xlink:title=" ">
<path fill="none" stroke="#63b8ff" d="M514.75,-445.52C520.64,-441.96 526.02,-437.59 530.25,-432.25 591.47,-354.91 500.24,-286.54 566.25,-213.25 614.67,-159.49 657.77,-201.02 723.25,-170.25 758.49,-153.69 794.53,-126.22 816.09,-108.43"/>
<polygon fill="#63b8ff" stroke="#63b8ff" points="818.09,-111.32 823.5,-102.2 813.59,-105.96 818.09,-111.32"/>
</a>
</g>
</g>
<!-- Node17 -->
<g id="Node000017" class="node">
<title>Node17</title>
<g id="a_Node000017"><a xlink:href="../../d3/d58/classorg_1_1xvm_1_1compiler_1_1_lexer.html#a002e154eb4c87c92344e50511f9d52b4" target="_top" xlink:title="Eat a character literal.">
<polygon fill="white" stroke="#666666" points="711.25,-252.5 578.25,-252.5 578.25,-222 711.25,-222 711.25,-252.5"/>
<text xml:space="preserve" text-anchor="start" x="586.25" y="-239" font-family="Helvetica,sans-Serif" font-size="10.00">org.xvm.compiler.Lexer.eat</text>
<text xml:space="preserve" text-anchor="middle" x="644.75" y="-227.75" font-family="Helvetica,sans-Serif" font-size="10.00">CharLiteral</text>
</a>
</g>
</g>
<!-- Node8&#45;&gt;Node17 -->
<g id="edge18_Node000008_Node000017" class="edge">
<title>Node8&#45;&gt;Node17</title>
<g id="a_edge18_Node000008_Node000017"><a xlink:title=" ">
<path fill="none" stroke="#63b8ff" d="M514.16,-445.53C520.23,-441.96 525.81,-437.59 530.25,-432.25 579.07,-373.53 515.71,-321.49 566.25,-264.25 567.74,-262.57 569.33,-260.99 571.02,-259.51"/>
<polygon fill="#63b8ff" stroke="#63b8ff" points="572.86,-262.5 578.9,-253.79 568.75,-256.83 572.86,-262.5"/>
</a>
</g>
</g>
<!-- Node18 -->
<g id="Node000018" class="node">
<title>Node18</title>
<g id="a_Node000018"><a xlink:href="../../d3/d58/classorg_1_1xvm_1_1compiler_1_1_lexer.html#a235ec241889b12a3e59dd52f62dabe4b" target="_top" xlink:title="Eat a string literal that is in the freeform/multi&#45;line form.">
<polygon fill="white" stroke="#666666" points="711.25,-128.5 578.25,-128.5 578.25,-98 711.25,-98 711.25,-128.5"/>
<text xml:space="preserve" text-anchor="start" x="586.25" y="-115" font-family="Helvetica,sans-Serif" font-size="10.00">org.xvm.compiler.Lexer.eat</text>
<text xml:space="preserve" text-anchor="middle" x="644.75" y="-103.75" font-family="Helvetica,sans-Serif" font-size="10.00">MultilineLiteral</text>
</a>
</g>
</g>
<!-- Node8&#45;&gt;Node18 -->
<g id="edge23_Node000008_Node000018" class="edge">
<title>Node8&#45;&gt;Node18</title>
<g id="a_edge23_Node000008_Node000018"><a xlink:title=" ">
<path fill="none" stroke="#63b8ff" d="M514.95,-445.68C520.81,-442.09 526.13,-437.67 530.25,-432.25 608.83,-328.84 485.79,-244.2 566.25,-142.25 568.25,-139.71 570.5,-137.4 572.94,-135.28"/>
<polygon fill="#63b8ff" stroke="#63b8ff" points="574.57,-138.42 580.63,-129.74 570.48,-132.75 574.57,-138.42"/>
</a>
</g>
</g>
<!-- Node19 -->
<g id="Node000019" class="node">
<title>Node19</title>
<g id="a_Node000019"><a xlink:href="../../d3/d58/classorg_1_1xvm_1_1compiler_1_1_lexer.html#ae1bc9110d2bc18f35b8f09409765ac6d" target="_top" xlink:title="Eat a template literal that uses the multi&#45;line format.">
<polygon fill="white" stroke="#666666" points="711.25,-79.5 578.25,-79.5 578.25,-49 711.25,-49 711.25,-79.5"/>
<text xml:space="preserve" text-anchor="start" x="586.25" y="-66" font-family="Helvetica,sans-Serif" font-size="10.00">org.xvm.compiler.Lexer.eat</text>
<text xml:space="preserve" text-anchor="middle" x="644.75" y="-54.75" font-family="Helvetica,sans-Serif" font-size="10.00">MultilineTemplateLiteral</text>
</a>
</g>
</g>
<!-- Node8&#45;&gt;Node19 -->
<g id="edge24_Node000008_Node000019" class="edge">
<title>Node8&#45;&gt;Node19</title>
<g id="a_edge24_Node000008_Node000019"><a xlink:title=" ">
<path fill="none" stroke="#63b8ff" d="M515.39,-445.55C521.1,-441.98 526.26,-437.61 530.25,-432.25 621.83,-309.34 469.67,-208.28 566.25,-89.25 567.18,-88.11 568.16,-87.02 569.18,-85.98"/>
<polygon fill="#63b8ff" stroke="#63b8ff" points="571.14,-88.89 576.7,-79.87 566.73,-83.46 571.14,-88.89"/>
</a>
</g>
</g>
<!-- Node20 -->
<g id="Node000020" class="node">
<title>Node20</title>
<g id="a_Node000020"><a xlink:href="../../d3/d58/classorg_1_1xvm_1_1compiler_1_1_lexer.html#a96b3815d6bfa33baf062099a30069632" target="_top" xlink:title="Eat a string literal.">
<polygon fill="white" stroke="#666666" points="711.25,-758.5 578.25,-758.5 578.25,-728 711.25,-728 711.25,-758.5"/>
<text xml:space="preserve" text-anchor="start" x="586.25" y="-745" font-family="Helvetica,sans-Serif" font-size="10.00">org.xvm.compiler.Lexer.eat</text>
<text xml:space="preserve" text-anchor="middle" x="644.75" y="-733.75" font-family="Helvetica,sans-Serif" font-size="10.00">StringLiteral</text>
</a>
</g>
</g>
<!-- Node8&#45;&gt;Node20 -->
<g id="edge25_Node000008_Node000020" class="edge">
<title>Node8&#45;&gt;Node20</title>
<g id="a_edge25_Node000008_Node000020"><a xlink:title=" ">
<path fill="none" stroke="#63b8ff" d="M462.47,-476.82C468.56,-521.2 492.06,-649.63 566.25,-718.25 567.48,-719.39 568.77,-720.48 570.1,-721.52"/>
<polygon fill="#63b8ff" stroke="#63b8ff" points="567.91,-724.26 578.18,-726.84 571.76,-718.42 567.91,-724.26"/>
</a>
</g>
</g>
<!-- Node21 -->
<g id="Node000021" class="node">
<title>Node21</title>
<g id="a_Node000021"><a xlink:href="../../d3/d58/classorg_1_1xvm_1_1compiler_1_1_lexer.html#a47b83484109465ee8de1e5f16a43d180" target="_top" xlink:title="Eat a template literal.">
<polygon fill="white" stroke="#666666" points="711.25,-709.5 578.25,-709.5 578.25,-679 711.25,-679 711.25,-709.5"/>
<text xml:space="preserve" text-anchor="start" x="586.25" y="-696" font-family="Helvetica,sans-Serif" font-size="10.00">org.xvm.compiler.Lexer.eat</text>
<text xml:space="preserve" text-anchor="middle" x="644.75" y="-684.75" font-family="Helvetica,sans-Serif" font-size="10.00">TemplateLiteral</text>
</a>
</g>
</g>
<!-- Node8&#45;&gt;Node21 -->
<g id="edge26_Node000008_Node000021" class="edge">
<title>Node8&#45;&gt;Node21</title>
<g id="a_edge26_Node000008_Node000021"><a xlink:title=" ">
<path fill="none" stroke="#63b8ff" d="M464.15,-476.87C473.65,-515.38 503.4,-615.62 566.25,-669.25 567.69,-670.48 569.19,-671.65 570.75,-672.76"/>
<polygon fill="#63b8ff" stroke="#63b8ff" points="568.5,-675.49 578.85,-677.74 572.16,-669.52 568.5,-675.49"/>
</a>
</g>
</g>
<!-- Node22 -->
<g id="Node000022" class="node">
<title>Node22</title>
<g id="a_Node000022"><a xlink:href="../../db/db5/classorg_1_1xvm_1_1compiler_1_1_token.html#ac63b09643d3f46b81b894b31f7fa5130" target="_top" xlink:title="Determine the value of the token.">
<polygon fill="white" stroke="#666666" points="712.75,-660.5 576.75,-660.5 576.75,-630 712.75,-630 712.75,-660.5"/>
<text xml:space="preserve" text-anchor="start" x="584.75" y="-647" font-family="Helvetica,sans-Serif" font-size="10.00">org.xvm.compiler.Token.get</text>
<text xml:space="preserve" text-anchor="middle" x="644.75" y="-635.75" font-family="Helvetica,sans-Serif" font-size="10.00">Value</text>
</a>
</g>
</g>
<!-- Node8&#45;&gt;Node22 -->
<g id="edge31_Node000008_Node000022" class="edge">
<title>Node8&#45;&gt;Node22</title>
<g id="a_edge31_Node000008_Node000022"><a xlink:title=" ">
<path fill="none" stroke="#63b8ff" d="M466.51,-476.56C479.53,-508.36 513.81,-581.89 566.25,-621.25 567.59,-622.25 568.97,-623.22 570.38,-624.14"/>
<polygon fill="#63b8ff" stroke="#63b8ff" points="568.43,-627.06 578.86,-628.92 571.87,-620.96 568.43,-627.06"/>
</a>
</g>
</g>
<!-- Node23 -->
<g id="Node000023" class="node">
<title>Node23</title>
<g id="a_Node000023"><a xlink:href="../../db/db5/classorg_1_1xvm_1_1compiler_1_1_token.html#ab0212de72a0160601eff9e6bc0ada01d" target="_top" xlink:title="Refine the token identity to a more specific identity.">
<polygon fill="white" stroke="#666666" points="718,-611.88 571.5,-611.88 571.5,-592.62 718,-592.62 718,-611.88"/>
<text xml:space="preserve" text-anchor="middle" x="644.75" y="-598.38" font-family="Helvetica,sans-Serif" font-size="10.00">org.xvm.compiler.Token.refine</text>
</a>
</g>
</g>
<!-- Node8&#45;&gt;Node23 -->
<g id="edge34_Node000008_Node000023" class="edge">
<title>Node8&#45;&gt;Node23</title>
<g id="a_edge34_Node000008_Node000023"><a xlink:title=" ">
<path fill="none" stroke="#63b8ff" d="M469.51,-476.68C485.41,-502.86 521.32,-555.77 566.25,-583.25 569.02,-584.94 571.93,-586.49 574.94,-587.89"/>
<polygon fill="#63b8ff" stroke="#63b8ff" points="573.46,-591.07 584.04,-591.59 576.09,-584.58 573.46,-591.07"/>
</a>
</g>
</g>
<!-- Node25 -->
<g id="Node000025" class="node">
<title>Node25</title>
<g id="a_Node000025"><a xlink:href="../../d5/d95/classorg_1_1xvm_1_1compiler_1_1_source.html#a71ad30101b1abfd4b64416007c1bf951" target="_top" xlink:title="Using a previously returned position token, set the current position within the source to the positio...">
<polygon fill="white" stroke="#666666" points="715,-574.5 574.5,-574.5 574.5,-544 715,-544 715,-574.5"/>
<text xml:space="preserve" text-anchor="start" x="582.5" y="-561" font-family="Helvetica,sans-Serif" font-size="10.00">org.xvm.compiler.Source.set</text>
<text xml:space="preserve" text-anchor="middle" x="644.75" y="-549.75" font-family="Helvetica,sans-Serif" font-size="10.00">Position</text>
</a>
</g>
</g>
<!-- Node8&#45;&gt;Node25 -->
<g id="edge37_Node000008_Node000025" class="edge">
<title>Node8&#45;&gt;Node25</title>
<g id="a_edge37_Node000008_Node000025"><a xlink:title=" ">
<path fill="none" stroke="#63b8ff" d="M479.42,-476.79C499.75,-492.97 533.67,-518.17 566.25,-534.25 569.95,-536.08 573.82,-537.81 577.77,-539.46"/>
<polygon fill="#63b8ff" stroke="#63b8ff" points="576.34,-542.66 586.93,-543.03 578.89,-536.13 576.34,-542.66"/>
</a>
</g>
</g>
<!-- Node26 -->
<g id="Node000026" class="node">
<title>Node26</title>
<g id="a_Node000026"><a xlink:href="../../d0/dd8/enumorg_1_1xvm_1_1compiler_1_1_token_1_1_id.html#a69e59ee0c780812a62f07cce3379d36e" target="_top" xlink:title="Look up an Id enum by its TEXT, including context&#45;sensitive keywords.">
<polygon fill="white" stroke="#666666" points="723.25,-476.5 566.25,-476.5 566.25,-446 723.25,-446 723.25,-476.5"/>
<text xml:space="preserve" text-anchor="start" x="574.25" y="-463" font-family="Helvetica,sans-Serif" font-size="10.00">org.xvm.compiler.Token.Id.value</text>
<text xml:space="preserve" text-anchor="middle" x="644.75" y="-451.75" font-family="Helvetica,sans-Serif" font-size="10.00">ByContextSensitiveText</text>
</a>
</g>
</g>
<!-- Node8&#45;&gt;Node26 -->
<g id="edge38_Node000008_Node000026" class="edge">
<title>Node8&#45;&gt;Node26</title>
<g id="a_edge38_Node000008_Node000026"><a xlink:title=" ">
<path fill="none" stroke="#63b8ff" d="M526.48,-461.25C535.59,-461.25 545.07,-461.25 554.52,-461.25"/>
<polygon fill="#63b8ff" stroke="#63b8ff" points="554.49,-464.75 564.49,-461.25 554.49,-457.75 554.49,-464.75"/>
</a>
</g>
</g>
<!-- Node28 -->
<g id="Node000028" class="node">
<title>Node28</title>
<g id="a_Node000028"><a xlink:href="../../d0/dd8/enumorg_1_1xvm_1_1compiler_1_1_token_1_1_id.html#a7f3f29fe12ed326caee0c4193c44ba46" target="_top" xlink:title="Look up an Id enum by its TEXT, and if it is one of the keywords that has both a normal and one&#45;or&#45;mo...">
<polygon fill="white" stroke="#666666" points="723.25,-427.5 566.25,-427.5 566.25,-397 723.25,-397 723.25,-427.5"/>
<text xml:space="preserve" text-anchor="start" x="574.25" y="-414" font-family="Helvetica,sans-Serif" font-size="10.00">org.xvm.compiler.Token.Id.value</text>
<text xml:space="preserve" text-anchor="middle" x="644.75" y="-402.75" font-family="Helvetica,sans-Serif" font-size="10.00">ByPrefix</text>
</a>
</g>
</g>
<!-- Node8&#45;&gt;Node28 -->
<g id="edge40_Node000008_Node000028" class="edge">
<title>Node8&#45;&gt;Node28</title>
<g id="a_edge40_Node000008_Node000028"><a xlink:title=" ">
<path fill="none" stroke="#63b8ff" d="M519.32,-445.54C536.74,-440.88 555.98,-435.74 574.02,-430.91"/>
<polygon fill="#63b8ff" stroke="#63b8ff" points="574.85,-434.31 583.61,-428.34 573.04,-427.55 574.85,-434.31"/>
</a>
</g>
</g>
<!-- Node29 -->
<g id="Node000029" class="node">
<title>Node29</title>
<g id="a_Node000029"><a xlink:href="../../d0/dd8/enumorg_1_1xvm_1_1compiler_1_1_token_1_1_id.html#a6e19407808562b2b679ee9198000a863" target="_top" xlink:title="Look up an Id enum by its TEXT.">
<polygon fill="white" stroke="#666666" points="723.25,-525.5 566.25,-525.5 566.25,-495 723.25,-495 723.25,-525.5"/>
<text xml:space="preserve" text-anchor="start" x="574.25" y="-512" font-family="Helvetica,sans-Serif" font-size="10.00">org.xvm.compiler.Token.Id.value</text>
<text xml:space="preserve" text-anchor="middle" x="644.75" y="-500.75" font-family="Helvetica,sans-Serif" font-size="10.00">ByText</text>
</a>
</g>
</g>
<!-- Node8&#45;&gt;Node29 -->
<g id="edge42_Node000008_Node000029" class="edge">
<title>Node8&#45;&gt;Node29</title>
<g id="a_edge42_Node000008_Node000029"><a xlink:title=" ">
<path fill="none" stroke="#63b8ff" d="M519.32,-476.96C536.74,-481.62 555.98,-486.76 574.02,-491.59"/>
<polygon fill="#63b8ff" stroke="#63b8ff" points="573.04,-494.95 583.61,-494.16 574.85,-488.19 573.04,-494.95"/>
</a>
</g>
</g>
<!-- Node9&#45;&gt;Node10 -->
<g id="edge9_Node000009_Node000010" class="edge">
<title>Node9&#45;&gt;Node10</title>
<g id="a_edge9_Node000009_Node000010"><a xlink:title=" ">
<path fill="none" stroke="#63b8ff" d="M697.33,-303.89C706.32,-307.63 715.31,-312.07 723.25,-317.25 742.46,-329.8 740.06,-341.67 759.25,-354.25 764.04,-357.39 769.22,-360.26 774.55,-362.87"/>
<polygon fill="#63b8ff" stroke="#63b8ff" points="772.98,-366 783.54,-366.93 775.87,-359.62 772.98,-366"/>
</a>
</g>
</g>
<!-- Node9&#45;&gt;Node12 -->
<g id="edge11_Node000009_Node000012" class="edge">
<title>Node9&#45;&gt;Node12</title>
<g id="a_edge11_Node000009_Node000012"><a xlink:title=" ">
<path fill="none" stroke="#63b8ff" d="M701.02,-272.58C708.76,-269.37 716.4,-265.61 723.25,-261.25 742.6,-248.92 739.16,-235.33 759.25,-224.25 821.11,-190.12 848.35,-215.37 914.75,-191.25 947.89,-179.21 983.3,-159.32 1006.35,-145.32"/>
<polygon fill="#63b8ff" stroke="#63b8ff" points="1008.06,-148.38 1014.73,-140.15 1004.39,-142.42 1008.06,-148.38"/>
</a>
</g>
</g>
<!-- Node13 -->
<g id="Node000013" class="node">
<title>Node13</title>
<g id="a_Node000013"><a xlink:href="../../d3/d58/classorg_1_1xvm_1_1compiler_1_1_lexer.html#a607cd4928a5b7658a6ecbd15cb491571" target="_top" xlink:title=" ">
<polygon fill="white" stroke="#666666" points="900.5,-263.5 773.5,-263.5 773.5,-233 900.5,-233 900.5,-263.5"/>
<text xml:space="preserve" text-anchor="start" x="781.5" y="-250" font-family="Helvetica,sans-Serif" font-size="10.00">org.xvm.compiler.Lexer.is</text>
<text xml:space="preserve" text-anchor="middle" x="837" y="-238.75" font-family="Helvetica,sans-Serif" font-size="10.00">MultilineContinued</text>
</a>
</g>
</g>
<!-- Node9&#45;&gt;Node13 -->
<g id="edge12_Node000009_Node000013" class="edge">
<title>Node9&#45;&gt;Node13</title>
<g id="a_edge12_Node000009_Node000013"><a xlink:title=" ">
<path fill="none" stroke="#63b8ff" d="M711.49,-274.43C727.88,-270.98 745.55,-267.27 762.3,-263.75"/>
<polygon fill="#63b8ff" stroke="#63b8ff" points="762.6,-267.26 771.66,-261.78 761.16,-260.41 762.6,-267.26"/>
</a>
</g>
</g>
<!-- Node9&#45;&gt;Node14 -->
<g id="edge15_Node000009_Node000014" class="edge">
<title>Node9&#45;&gt;Node14</title>
<g id="a_edge15_Node000009_Node000014"><a xlink:title=" ">
<path fill="none" stroke="#63b8ff" d="M689.04,-303.96C709.95,-310.74 735.58,-317.88 759.25,-321.25 827.67,-330.99 846.08,-329.08 914.75,-321.25 938.6,-318.53 964.67,-312.79 986.13,-307.29"/>
<polygon fill="#63b8ff" stroke="#63b8ff" points="986.97,-310.69 995.74,-304.76 985.18,-303.92 986.97,-310.69"/>
</a>
</g>
</g>
<!-- Node9&#45;&gt;Node15 -->
<g id="edge16_Node000009_Node000015" class="edge">
<title>Node9&#45;&gt;Node15</title>
<g id="a_edge16_Node000009_Node000015"><a xlink:title=" ">
<path fill="none" stroke="#63b8ff" d="M705.88,-272.63C712.14,-269.49 718.09,-265.74 723.25,-261.25 749.65,-238.3 740.52,-220.8 759.25,-191.25 778.09,-161.52 803.55,-129.68 819.88,-110.11"/>
<polygon fill="#63b8ff" stroke="#63b8ff" points="822.55,-112.37 826.32,-102.47 817.2,-107.86 822.55,-112.37"/>
</a>
</g>
</g>
<!-- Node16 -->
<g id="Node000016" class="node">
<title>Node16</title>
<g id="a_Node000016"><a xlink:href="../../d3/d58/classorg_1_1xvm_1_1compiler_1_1_lexer.html#a49f272811503bd0d73779fa293fdb0b0" target="_top" xlink:title=" ">
<polygon fill="white" stroke="#666666" points="900.88,-312.5 773.12,-312.5 773.12,-282 900.88,-282 900.88,-312.5"/>
<text xml:space="preserve" text-anchor="start" x="781.12" y="-299" font-family="Helvetica,sans-Serif" font-size="10.00">org.xvm.compiler.Lexer.to</text>
<text xml:space="preserve" text-anchor="middle" x="837" y="-287.75" font-family="Helvetica,sans-Serif" font-size="10.00">Binary</text>
</a>
</g>
</g>
<!-- Node9&#45;&gt;Node16 -->
<g id="edge17_Node000009_Node000016" class="edge">
<title>Node9&#45;&gt;Node16</title>
<g id="a_edge17_Node000009_Node000016"><a xlink:title=" ">
<path fill="none" stroke="#63b8ff" d="M711.49,-291.36C727.63,-292.12 745.03,-292.95 761.55,-293.73"/>
<polygon fill="#63b8ff" stroke="#63b8ff" points="761.16,-297.21 771.31,-294.19 761.49,-290.22 761.16,-297.21"/>
</a>
</g>
</g>
<!-- Node11 -->
<g id="Node000011" class="node">
<title>Node11</title>
<g id="a_Node000011"><a xlink:href="../../d5/d95/classorg_1_1xvm_1_1compiler_1_1_source.html#a4f502389b27d930d80715af1ab31c888" target="_top" xlink:title="Determine the offset within the current line of the source.">
<polygon fill="white" stroke="#666666" points="1102.88,-398.5 962.38,-398.5 962.38,-368 1102.88,-368 1102.88,-398.5"/>
<text xml:space="preserve" text-anchor="start" x="970.38" y="-385" font-family="Helvetica,sans-Serif" font-size="10.00">org.xvm.compiler.Source.get</text>
<text xml:space="preserve" text-anchor="middle" x="1032.62" y="-373.75" font-family="Helvetica,sans-Serif" font-size="10.00">Offset</text>
</a>
</g>
</g>
<!-- Node10&#45;&gt;Node11 -->
<g id="edge10_Node000010_Node000011" class="edge">
<title>Node10&#45;&gt;Node11</title>
<g id="a_edge10_Node000010_Node000011"><a xlink:title=" ">
<path fill="none" stroke="#63b8ff" d="M907.63,-383.25C921.57,-383.25 936.34,-383.25 950.63,-383.25"/>
<polygon fill="#63b8ff" stroke="#63b8ff" points="950.45,-386.75 960.45,-383.25 950.45,-379.75 950.45,-386.75"/>
</a>
</g>
</g>
<!-- Node13&#45;&gt;Node12 -->
<g id="edge13_Node000013_Node000012" class="edge">
<title>Node13&#45;&gt;Node12</title>
<g id="a_edge13_Node000013_Node000012"><a xlink:title=" ">
<path fill="none" stroke="#63b8ff" d="M886.07,-232.58C895.8,-228.72 905.79,-224.25 914.75,-219.25 952.13,-198.4 990.52,-166.42 1012.66,-146.72"/>
<polygon fill="#63b8ff" stroke="#63b8ff" points="1014.9,-149.41 1019.99,-140.12 1010.22,-144.22 1014.9,-149.41"/>
</a>
</g>
</g>
<!-- Node13&#45;&gt;Node14 -->
<g id="edge14_Node000013_Node000014" class="edge">
<title>Node13&#45;&gt;Node14</title>
<g id="a_edge14_Node000013_Node000014"><a xlink:title=" ">
<path fill="none" stroke="#63b8ff" d="M900.86,-263.18C925.84,-269.12 954.27,-275.87 978.22,-281.56"/>
<polygon fill="#63b8ff" stroke="#63b8ff" points="977.23,-284.92 987.76,-283.83 978.84,-278.11 977.23,-284.92"/>
</a>
</g>
</g>
<!-- Node17&#45;&gt;Node10 -->
<g id="edge19_Node000017_Node000010" class="edge">
<title>Node17&#45;&gt;Node10</title>
<g id="a_edge19_Node000017_Node000010"><a xlink:title=" ">
<path fill="none" stroke="#63b8ff" d="M704.7,-252.95C711.32,-256.09 717.67,-259.82 723.25,-264.25 746.71,-282.89 739.33,-298.87 759.25,-321.25 772.33,-335.94 789.12,-349.93 803.66,-360.89"/>
<polygon fill="#63b8ff" stroke="#63b8ff" points="801.48,-363.63 811.61,-366.73 805.62,-357.99 801.48,-363.63"/>
</a>
</g>
</g>
<!-- Node17&#45;&gt;Node12 -->
<g id="edge20_Node000017_Node000012" class="edge">
<title>Node17&#45;&gt;Node12</title>
<g id="a_edge20_Node000017_Node000012"><a xlink:title=" ">
<path fill="none" stroke="#63b8ff" d="M701.86,-221.55C778.25,-200.17 913.59,-162.29 984.81,-142.35"/>
<polygon fill="#63b8ff" stroke="#63b8ff" points="985.53,-145.79 994.22,-139.72 983.65,-139.04 985.53,-145.79"/>
</a>
</g>
</g>
<!-- Node17&#45;&gt;Node14 -->
<g id="edge21_Node000017_Node000014" class="edge">
<title>Node17&#45;&gt;Node14</title>
<g id="a_edge21_Node000017_Node000014"><a xlink:title=" ">
<path fill="none" stroke="#63b8ff" d="M711.7,-222.7C766.96,-213.18 847.38,-205.62 914.75,-224.25 951.88,-234.52 989.08,-260.06 1011.23,-277.28"/>
<polygon fill="#63b8ff" stroke="#63b8ff" points="1008.84,-279.86 1018.84,-283.36 1013.21,-274.39 1008.84,-279.86"/>
</a>
</g>
</g>
<!-- Node17&#45;&gt;Node15 -->
<g id="edge22_Node000017_Node000015" class="edge">
<title>Node17&#45;&gt;Node15</title>
<g id="a_edge22_Node000017_Node000015"><a xlink:title=" ">
<path fill="none" stroke="#63b8ff" d="M704.45,-221.56C711.34,-217.98 717.84,-213.6 723.25,-208.25 754.77,-177.09 726.89,-145.54 759.25,-115.25 762.96,-111.78 767.17,-108.8 771.66,-106.26"/>
<polygon fill="#63b8ff" stroke="#63b8ff" points="773,-109.5 780.49,-102.01 769.96,-103.2 773,-109.5"/>
</a>
</g>
</g>
<!-- Node24 -->
<g id="Node000024" class="node">
<title>Node24</title>
<g id="a_Node000024"><a xlink:href="../../db/db5/classorg_1_1xvm_1_1compiler_1_1_token.html#aa532a38aee5ad4c2e421b87fe9f8bfdf" target="_top" xlink:title="Construct an Ecstasy token.">
<polygon fill="white" stroke="#666666" points="911.38,-611.88 762.62,-611.88 762.62,-592.62 911.38,-592.62 911.38,-611.88"/>
<text xml:space="preserve" text-anchor="middle" x="837" y="-598.38" font-family="Helvetica,sans-Serif" font-size="10.00">org.xvm.compiler.Token.Token</text>
</a>
</g>
</g>
<!-- Node23&#45;&gt;Node24 -->
<g id="edge35_Node000023_Node000024" class="edge">
<title>Node23&#45;&gt;Node24</title>
<g id="a_edge35_Node000023_Node000024"><a xlink:title=" ">
<path fill="none" stroke="#63b8ff" d="M718.49,-602.25C729.16,-602.25 740.22,-602.25 751.1,-602.25"/>
<polygon fill="#63b8ff" stroke="#63b8ff" points="750.84,-605.75 760.84,-602.25 750.84,-598.75 750.84,-605.75"/>
</a>
</g>
</g>
<!-- Node27 -->
<g id="Node000027" class="node">
<title>Node27</title>
<g id="a_Node000027"><a xlink:href="../../d0/dd8/enumorg_1_1xvm_1_1compiler_1_1_token_1_1_id.html#aacecfd4d66ea86bbedb9cec330252dba" target="_top" xlink:title="Constructor.">
<polygon fill="white" stroke="#666666" points="908,-473.88 766,-473.88 766,-454.62 908,-454.62 908,-473.88"/>
<text xml:space="preserve" text-anchor="middle" x="837" y="-460.38" font-family="Helvetica,sans-Serif" font-size="10.00">org.xvm.compiler.Token.Id.Id</text>
</a>
</g>
</g>
<!-- Node26&#45;&gt;Node27 -->
<g id="edge39_Node000026_Node000027" class="edge">
<title>Node26&#45;&gt;Node27</title>
<g id="a_edge39_Node000026_Node000027"><a xlink:title=" ">
<path fill="none" stroke="#63b8ff" d="M723.68,-462.48C733.75,-462.64 744.08,-462.8 754.2,-462.96"/>
<polygon fill="#63b8ff" stroke="#63b8ff" points="753.95,-466.46 764.01,-463.11 754.07,-459.46 753.95,-466.46"/>
</a>
</g>
</g>
<!-- Node28&#45;&gt;Node27 -->
<g id="edge41_Node000028_Node000027" class="edge">
<title>Node28&#45;&gt;Node27</title>
<g id="a_edge41_Node000028_Node000027"><a xlink:title=" ">
<path fill="none" stroke="#63b8ff" d="M703.35,-427.99C730.4,-435.39 762.28,-444.1 788.01,-451.13"/>
<polygon fill="#63b8ff" stroke="#63b8ff" points="786.96,-454.47 797.53,-453.74 788.81,-447.72 786.96,-454.47"/>
</a>
</g>
</g>
<!-- Node29&#45;&gt;Node27 -->
<g id="edge43_Node000029_Node000027" class="edge">
<title>Node29&#45;&gt;Node27</title>
<g id="a_edge43_Node000029_Node000027"><a xlink:title=" ">
<path fill="none" stroke="#63b8ff" d="M710.69,-494.55C734.36,-488.83 760.8,-482.43 783.28,-477"/>
<polygon fill="#63b8ff" stroke="#63b8ff" points="783.93,-480.44 792.83,-474.69 782.29,-473.64 783.93,-480.44"/>
</a>
</g>
</g>
<!-- Node30&#45;&gt;Node12 -->
<g id="edge45_Node000030_Node000012" class="edge">
<title>Node30&#45;&gt;Node12</title>
<g id="a_edge45_Node000030_Node000012"><a xlink:title=" ">
<path fill="none" stroke="#63b8ff" d="M711.67,-11.03C767.61,-9.78 849.03,-13.56 914.75,-39.25 955.24,-55.08 993.42,-89.49 1014.55,-110.87"/>
<polygon fill="#63b8ff" stroke="#63b8ff" points="1012.02,-113.29 1021.47,-118.06 1017.06,-108.43 1012.02,-113.29"/>
</a>
</g>
</g>
<!-- Node30&#45;&gt;Node15 -->
<g id="edge46_Node000030_Node000015" class="edge">
<title>Node30&#45;&gt;Node15</title>
<g id="a_edge46_Node000030_Node000015"><a xlink:title=" ">
<path fill="none" stroke="#63b8ff" d="M697.31,-30.98C706.03,-33.9 714.94,-37.04 723.25,-40.25 751.5,-51.15 782.82,-65.51 805.26,-76.21"/>
<polygon fill="#63b8ff" stroke="#63b8ff" points="803.62,-79.31 814.15,-80.48 806.66,-73 803.62,-79.31"/>
</a>
</g>
</g>
</g>
</svg>
