<?xml version="1.0" encoding="UTF-8" standalone="no"?>
<!DOCTYPE svg PUBLIC "-//W3C//DTD SVG 1.1//EN"
 "http://www.w3.org/Graphics/SVG/1.1/DTD/svg11.dtd">
<!-- Generated by graphviz version 14.1.3 (20260303.0454)
 -->
<!-- Title: org.xvm.asm.constants.MethodInfo.isAuto Pages: 1 -->
<!--zoomable 137 -->

<svg id="main" version="1.1" xmlns="http://www.w3.org/2000/svg" xmlns:xlink="http://www.w3.org/1999/xlink" xml:space="preserve" onload="init(evt)">

<style type="text/css"><![CDATA[
.node, .edge {opacity: 0.7;}
.node.selected, .edge.selected {opacity: 1;}
.edge:hover path { stroke: red; }
.edge:hover polygon { stroke: red; fill: red; }
]]></style>

<defs>
  <circle id="rim" cx="0" cy="0" r="7"/>
  <circle id="rim2" cx="0" cy="0" r="3.5"/>
  <g id="zoomPlus">
    <use xlink:href="#rim" fill="#404040"><set attributeName="fill" to="#808080" begin="zoomplus.mouseover" end="zoomplus.mouseout"/></use>
    <path d="M-4,0h8M0,-4v8" fill="none" stroke="white" stroke-width="1.5" pointer-events="none"/>
  </g>
  <g id="zoomMin">
    <use xlink:href="#rim" fill="#404040"><set attributeName="fill" to="#808080" begin="zoomminus.mouseover" end="zoomminus.mouseout"/></use>
    <path d="M-4,0h8" fill="none" stroke="white" stroke-width="1.5" pointer-events="none"/>
  </g>
  <g id="arrowUp" transform="translate(30 24)">
    <use xlink:href="#rim"/>
    <path pointer-events="none" fill="none" stroke="white" stroke-width="1.5" d="M0,-3.0v7 M-2.5,-0.5L0,-3.0L2.5,-0.5"/>
  </g>
  <g id="arrowRight" transform="rotate(90) translate(36 -43)">
    <use xlink:href="#rim"/>
    <path pointer-events="none" fill="none" stroke="white" stroke-width="1.5" d="M0,-3.0v7 M-2.5,-0.5L0,-3.0L2.5,-0.5"/>
  </g>
  <g id="arrowDown" transform="rotate(180) translate(-30 -48)">
    <use xlink:href="#rim"/>
    <path pointer-events="none" fill="none" stroke="white" stroke-width="1.5" d="M0,-3.0v7 M-2.5,-0.5L0,-3.0L2.5,-0.5"/>
  </g>
  <g id="arrowLeft" transform="rotate(270) translate(-36 17)">
    <use xlink:href="#rim"/>
    <path pointer-events="none" fill="none" stroke="white" stroke-width="1.5" d="M0,-3.0v7 M-2.5,-0.5L0,-3.0L2.5,-0.5"/>
  </g>
  <g id="resetDef">
    <use xlink:href="#rim2" fill="#404040"><set attributeName="fill" to="#808080" begin="reset.mouseover" end="reset.mouseout"/></use>
  </g>
</defs>
<script type="application/ecmascript">
var viewWidth = 743;
var viewHeight = 137;
var sectionId = 'dynsection-53';
</script>
<script type="application/ecmascript" xlink:href="../../svg.min.js"/>
<svg id="graph" class="graph">
<g id="viewport">
<title>org.xvm.asm.constants.MethodInfo.isAuto</title>
<!-- Node1 -->
<g id="Node000001" class="node">
<title>Node1</title>
<g id="a_Node000001"><a xlink:title=" ">
<polygon fill="#999999" stroke="#666666" points="154,-78.5 0,-78.5 0,-48 154,-48 154,-78.5"/>
<text xml:space="preserve" text-anchor="start" x="8" y="-65" font-family="Helvetica,sans-Serif" font-size="10.00">org.xvm.asm.constants.Method</text>
<text xml:space="preserve" text-anchor="middle" x="77" y="-53.75" font-family="Helvetica,sans-Serif" font-size="10.00">Info.isAuto</text>
</a>
</g>
</g>
<!-- Node2 -->
<g id="Node000002" class="node">
<title>Node2</title>
<g id="a_Node000002"><a xlink:href="../../d3/d83/classorg_1_1xvm_1_1asm_1_1constants_1_1_method_info.html#abdae6eb1cf34d19a4ffb5e02212ecfd3" target="_top" xlink:title=" ">
<polygon fill="white" stroke="#666666" points="344,-103.5 190,-103.5 190,-73 344,-73 344,-103.5"/>
<text xml:space="preserve" text-anchor="start" x="198" y="-90" font-family="Helvetica,sans-Serif" font-size="10.00">org.xvm.asm.constants.Method</text>
<text xml:space="preserve" text-anchor="middle" x="267" y="-78.75" font-family="Helvetica,sans-Serif" font-size="10.00">Info.getHead</text>
</a>
</g>
</g>
<!-- Node1&#45;&gt;Node2 -->
<g id="edge1_Node000001_Node000002" class="edge">
<title>Node1&#45;&gt;Node2</title>
<g id="a_edge1_Node000001_Node000002"><a xlink:title=" ">
<path fill="none" stroke="#63b8ff" d="M154.47,-73.42C162.34,-74.47 170.39,-75.54 178.38,-76.6"/>
<polygon fill="#63b8ff" stroke="#63b8ff" points="177.73,-80.04 188.1,-77.89 178.65,-73.1 177.73,-80.04"/>
</a>
</g>
</g>
<!-- Node3 -->
<g id="Node000003" class="node">
<title>Node3</title>
<g id="a_Node000003"><a xlink:href="../../d3/dd6/classorg_1_1xvm_1_1asm_1_1constants_1_1_method_body.html#a8b02f42458dab87e3e58a0ac83074da0" target="_top" xlink:title=" ">
<polygon fill="white" stroke="#666666" points="344,-54.5 190,-54.5 190,-24 344,-24 344,-54.5"/>
<text xml:space="preserve" text-anchor="start" x="198" y="-41" font-family="Helvetica,sans-Serif" font-size="10.00">org.xvm.asm.constants.Method</text>
<text xml:space="preserve" text-anchor="middle" x="267" y="-29.75" font-family="Helvetica,sans-Serif" font-size="10.00">Body.isAuto</text>
</a>
</g>
</g>
<!-- Node1&#45;&gt;Node3 -->
<g id="edge2_Node000001_Node000003" class="edge">
<title>Node1&#45;&gt;Node3</title>
<g id="a_edge2_Node000001_Node000003"><a xlink:title=" ">
<path fill="none" stroke="#63b8ff" d="M154.47,-53.49C162.34,-52.48 170.39,-51.46 178.38,-50.44"/>
<polygon fill="#63b8ff" stroke="#63b8ff" points="178.62,-53.93 188.1,-49.19 177.74,-46.99 178.62,-53.93"/>
</a>
</g>
</g>
<!-- Node4 -->
<g id="Node000004" class="node">
<title>Node4</title>
<g id="a_Node000004"><a xlink:href="../../d3/dd6/classorg_1_1xvm_1_1asm_1_1constants_1_1_method_body.html#abe4fc5d3a3475ceedb70ca69d1821f17" target="_top" xlink:title="Determine if this method is annotated with the specified annotation.">
<polygon fill="white" stroke="#666666" points="534,-77.5 380,-77.5 380,-47 534,-47 534,-77.5"/>
<text xml:space="preserve" text-anchor="start" x="388" y="-64" font-family="Helvetica,sans-Serif" font-size="10.00">org.xvm.asm.constants.Method</text>
<text xml:space="preserve" text-anchor="middle" x="457" y="-52.75" font-family="Helvetica,sans-Serif" font-size="10.00">Body.findAnnotation</text>
</a>
</g>
</g>
<!-- Node3&#45;&gt;Node4 -->
<g id="edge3_Node000003_Node000004" class="edge">
<title>Node3&#45;&gt;Node4</title>
<g id="a_edge3_Node000003_Node000004"><a xlink:title=" ">
<path fill="none" stroke="#63b8ff" d="M344.47,-48.6C352.34,-49.57 360.39,-50.55 368.38,-51.53"/>
<polygon fill="#63b8ff" stroke="#63b8ff" points="367.75,-54.98 378.1,-52.72 368.6,-48.03 367.75,-54.98"/>
</a>
</g>
</g>
<!-- Node7 -->
<g id="Node000007" class="node">
<title>Node7</title>
<g id="a_Node000007"><a xlink:href="../../d3/dd6/classorg_1_1xvm_1_1asm_1_1constants_1_1_method_body.html#ada5ed6cc42888ed3ddf5d61a7d187707" target="_top" xlink:title=" ">
<polygon fill="white" stroke="#666666" points="729.25,-30.5 575.25,-30.5 575.25,0 729.25,0 729.25,-30.5"/>
<text xml:space="preserve" text-anchor="start" x="583.25" y="-17" font-family="Helvetica,sans-Serif" font-size="10.00">org.xvm.asm.constants.Method</text>
<text xml:space="preserve" text-anchor="middle" x="652.25" y="-5.75" font-family="Helvetica,sans-Serif" font-size="10.00">Body.getMethodStructure</text>
</a>
</g>
</g>
<!-- Node3&#45;&gt;Node7 -->
<g id="edge7_Node000003_Node000007" class="edge">
<title>Node3&#45;&gt;Node7</title>
<g id="a_edge7_Node000003_Node000007"><a xlink:title=" ">
<path fill="none" stroke="#63b8ff" d="M344.18,-34.48C407.42,-30.52 497.43,-24.88 563.65,-20.74"/>
<polygon fill="#63b8ff" stroke="#63b8ff" points="563.62,-24.24 573.38,-20.13 563.18,-17.26 563.62,-24.24"/>
</a>
</g>
</g>
<!-- Node5 -->
<g id="Node000005" class="node">
<title>Node5</title>
<g id="a_Node000005"><a xlink:href="../../d4/d90/classorg_1_1xvm_1_1asm_1_1_method_structure.html#aed7f50875e5f3f8abb2dbd2d167397ce" target="_top" xlink:title=" ">
<polygon fill="white" stroke="#666666" points="734.5,-128.5 570,-128.5 570,-98 734.5,-98 734.5,-128.5"/>
<text xml:space="preserve" text-anchor="start" x="578" y="-115" font-family="Helvetica,sans-Serif" font-size="10.00">org.xvm.asm.MethodStructure.get</text>
<text xml:space="preserve" text-anchor="middle" x="652.25" y="-103.75" font-family="Helvetica,sans-Serif" font-size="10.00">AnnotationCount</text>
</a>
</g>
</g>
<!-- Node4&#45;&gt;Node5 -->
<g id="edge4_Node000004_Node000005" class="edge">
<title>Node4&#45;&gt;Node5</title>
<g id="a_edge4_Node000004_Node000005"><a xlink:title=" ">
<path fill="none" stroke="#63b8ff" d="M517.56,-77.97C537.58,-83.25 560.11,-89.2 580.88,-94.68"/>
<polygon fill="#63b8ff" stroke="#63b8ff" points="579.86,-98.03 590.42,-97.2 581.65,-91.26 579.86,-98.03"/>
</a>
</g>
</g>
<!-- Node6 -->
<g id="Node000006" class="node">
<title>Node6</title>
<g id="a_Node000006"><a xlink:href="../../d4/d90/classorg_1_1xvm_1_1asm_1_1_method_structure.html#aefe78fab70150af87c20ee5f864fafbb" target="_top" xlink:title=" ">
<polygon fill="white" stroke="#666666" points="734.5,-79.5 570,-79.5 570,-49 734.5,-49 734.5,-79.5"/>
<text xml:space="preserve" text-anchor="start" x="578" y="-66" font-family="Helvetica,sans-Serif" font-size="10.00">org.xvm.asm.MethodStructure.get</text>
<text xml:space="preserve" text-anchor="middle" x="652.25" y="-54.75" font-family="Helvetica,sans-Serif" font-size="10.00">Annotations</text>
</a>
</g>
</g>
<!-- Node4&#45;&gt;Node6 -->
<g id="edge5_Node000004_Node000006" class="edge">
<title>Node4&#45;&gt;Node6</title>
<g id="a_edge5_Node000004_Node000006"><a xlink:title=" ">
<path fill="none" stroke="#63b8ff" d="M534.38,-63.04C542.27,-63.12 550.34,-63.21 558.38,-63.29"/>
<polygon fill="#63b8ff" stroke="#63b8ff" points="558.16,-66.79 568.19,-63.39 558.23,-59.79 558.16,-66.79"/>
</a>
</g>
</g>
<!-- Node4&#45;&gt;Node7 -->
<g id="edge6_Node000004_Node000007" class="edge">
<title>Node4&#45;&gt;Node7</title>
<g id="a_edge6_Node000004_Node000007"><a xlink:title=" ">
<path fill="none" stroke="#63b8ff" d="M522.62,-46.53C539.7,-42.38 558.29,-37.86 575.89,-33.58"/>
<polygon fill="#63b8ff" stroke="#63b8ff" points="576.33,-37.07 585.22,-31.31 574.68,-30.27 576.33,-37.07"/>
</a>
</g>
</g>
</g>
</svg>

<g id="navigator" transform="translate(0 0)" fill="#404254">
  <rect fill="#f2f5e9" fill-opacity="0.5" stroke="#606060" stroke-width=".5" x="0" y="0" width="60" height="60"/>
  <use id="zoomplus" xlink:href="#zoomPlus" x="17" y="9" onmousedown="handleZoom(evt,'in')"/>
  <use id="zoomminus" xlink:href="#zoomMin" x="42" y="9" onmousedown="handleZoom(evt,'out')"/>
  <use id="reset" xlink:href="#resetDef" x="30" y="36" onmousedown="handleReset()"/>
   <use id="arrowup" xlink:href="#arrowUp" x="0" y="0" onmousedown="handlePan(0,-1)"/>
  <use id="arrowright" xlink:href="#arrowRight" x="0" y="0" onmousedown="handlePan(1,0)"/>
  <use id="arrowdown" xlink:href="#arrowDown" x="0" y="0" onmousedown="handlePan(0,1)"/>
  <use id="arrowleft" xlink:href="#arrowLeft" x="0" y="0" onmousedown="handlePan(-1,0)"/>
</g>
<svg viewBox="0 0 15 15" width="100%" height="30px" preserveAspectRatio="xMaxYMin meet">
 <g id="arrow_out" transform="scale(0.3 0.3)">
  <a xlink:href="classorg_1_1xvm_1_1asm_1_1constants_1_1_method_info_aef2eb459042c96bb7d3ca93e835c751d_cgraph_org.svg" target="_base">
   <rect id="button" ry="5" rx="5" y="6" x="6" height="38" width="38"
        fill="#f2f5e9" fill-opacity="0.5" stroke="#606060" stroke-width="1.0"/>
   <path id="arrow"
     d="M 11.500037,31.436501 C 11.940474,20.09759 22.043105,11.32322 32.158766,21.979434 L 37.068811,17.246167 C 37.068811,17.246167 37.088388,32 37.088388,32 L 22.160133,31.978069 C 22.160133,31.978069 26.997745,27.140456 26.997745,27.140456 C 18.528582,18.264221 13.291696,25.230495 11.500037,31.436501 z"
     style="fill:#404040;"/>
  </a>
 </g>
</svg>

<style type='text/css'>
<![CDATA[
[data-mouse-over-selected='false'] { opacity: 0.7; }
[data-mouse-over-selected='true']  { opacity: 1.0; }
]]>
</style>
<script type="application/ecmascript"><![CDATA[
document.addEventListener('DOMContentLoaded', (event) => {
  highlightEdges();
  highlightAdjacentNodes();
});
]]></script>
</svg>
