<?xml version="1.0" encoding="UTF-8" standalone="no"?>
<!DOCTYPE svg PUBLIC "-//W3C//DTD SVG 1.1//EN"
 "http://www.w3.org/Graphics/SVG/1.1/DTD/svg11.dtd">
<!-- Generated by graphviz version 14.1.3 (20260303.0454)
 -->
<!-- Title: /Users/jim/work/xvm/javatools_utils/src/main/java/org/xvm/util/WeakHasherReference.java Pages: 1 -->
<svg width="458pt" height="116pt"
 viewBox="0.00 0.00 458.00 116.00" xmlns="http://www.w3.org/2000/svg" xmlns:xlink="http://www.w3.org/1999/xlink">
<g id="page0,1_graph0" class="graph" transform="scale(1 1) rotate(0) translate(4 112.25)">
<title>/Users/jim/work/xvm/javatools_utils/src/main/java/org/xvm/util/WeakHasherReference.java</title>
<!-- Node1 -->
<g id="Node000001" class="node">
<title>Node1</title>
<g id="a_Node000001"><a xlink:title=" ">
<polygon fill="#999999" stroke="#666666" points="305.5,-108.25 164.25,-108.25 164.25,-55.25 305.5,-55.25 305.5,-108.25"/>
<text xml:space="preserve" text-anchor="start" x="172.25" y="-94.75" font-family="Helvetica,sans-Serif" font-size="10.00">/Users/jim/work/xvm</text>
<text xml:space="preserve" text-anchor="start" x="172.25" y="-83.5" font-family="Helvetica,sans-Serif" font-size="10.00">/javatools_utils/src</text>
<text xml:space="preserve" text-anchor="start" x="172.25" y="-72.25" font-family="Helvetica,sans-Serif" font-size="10.00">/main/java/org/xvm/util</text>
<text xml:space="preserve" text-anchor="middle" x="234.88" y="-61" font-family="Helvetica,sans-Serif" font-size="10.00">/WeakHasherReference.java</text>
</a>
</g>
</g>
<!-- Node2 -->
<g id="Node000002" class="node">
<title>Node2</title>
<g id="a_Node000002"><a xlink:title=" ">
<polygon fill="#e0e0e0" stroke="#999999" points="145.75,-19.25 0,-19.25 0,0 145.75,0 145.75,-19.25"/>
<text xml:space="preserve" text-anchor="middle" x="72.88" y="-5.75" font-family="Helvetica,sans-Serif" font-size="10.00">java.lang.ref.ReferenceQueue</text>
</a>
</g>
</g>
<!-- Node1&#45;&gt;Node2 -->
<g id="edge1_Node000001_Node000002" class="edge">
<title>Node1&#45;&gt;Node2</title>
<g id="a_edge1_Node000001_Node000002"><a xlink:title=" ">
<path fill="none" stroke="#63b8ff" d="M175.01,-54.84C150.98,-44.43 124.28,-32.88 104.21,-24.19"/>
<polygon fill="#63b8ff" stroke="#63b8ff" points="105.75,-21.04 95.19,-20.28 102.97,-27.47 105.75,-21.04"/>
</a>
</g>
</g>
<!-- Node3 -->
<g id="Node000003" class="node">
<title>Node3</title>
<g id="a_Node000003"><a xlink:title=" ">
<polygon fill="#e0e0e0" stroke="#999999" points="305.88,-19.25 163.88,-19.25 163.88,0 305.88,0 305.88,-19.25"/>
<text xml:space="preserve" text-anchor="middle" x="234.88" y="-5.75" font-family="Helvetica,sans-Serif" font-size="10.00">java.lang.ref.WeakReference</text>
</a>
</g>
</g>
<!-- Node1&#45;&gt;Node3 -->
<g id="edge2_Node000001_Node000003" class="edge">
<title>Node1&#45;&gt;Node3</title>
<g id="a_edge2_Node000001_Node000003"><a xlink:title=" ">
<path fill="none" stroke="#63b8ff" d="M234.88,-55.04C234.88,-47.12 234.88,-38.52 234.88,-31.02"/>
<polygon fill="#63b8ff" stroke="#63b8ff" points="238.38,-31.25 234.88,-21.25 231.38,-31.25 238.38,-31.25"/>
</a>
</g>
</g>
<!-- Node4 -->
<g id="Node000004" class="node">
<title>Node4</title>
<g id="a_Node000004"><a xlink:title=" ">
<polygon fill="#e0e0e0" stroke="#999999" points="449.62,-19.25 324.12,-19.25 324.12,0 449.62,0 449.62,-19.25"/>
<text xml:space="preserve" text-anchor="middle" x="386.88" y="-5.75" font-family="Helvetica,sans-Serif" font-size="10.00">java.util.function.Supplier</text>
</a>
</g>
</g>
<!-- Node1&#45;&gt;Node4 -->
<g id="edge3_Node000001_Node000004" class="edge">
<title>Node1&#45;&gt;Node4</title>
<g id="a_edge3_Node000001_Node000004"><a xlink:title=" ">
<path fill="none" stroke="#63b8ff" d="M291.04,-54.84C313.38,-44.53 338.18,-33.09 356.95,-24.43"/>
<polygon fill="#63b8ff" stroke="#63b8ff" points="358.26,-27.68 365.87,-20.32 355.32,-21.33 358.26,-27.68"/>
</a>
</g>
</g>
</g>
</svg>
