<?xml version="1.0" encoding="UTF-8" standalone="no"?>
<!DOCTYPE svg PUBLIC "-//W3C//DTD SVG 1.1//EN"
 "http://www.w3.org/Graphics/SVG/1.1/DTD/svg11.dtd">
<!-- Generated by graphviz version 14.1.3 (20260303.0454)
 -->
<!-- Title: /Users/jim/work/xvm/javatools/src/main/java/org/xvm/asm/op/GP_Sub.java Pages: 1 -->
<!--zoomable 128 -->

<svg id="main" version="1.1" xmlns="http://www.w3.org/2000/svg" xmlns:xlink="http://www.w3.org/1999/xlink" xml:space="preserve" onload="init(evt)">

<style type="text/css"><![CDATA[
.node, .edge {opacity: 0.7;}
.node.selected, .edge.selected {opacity: 1;}
.edge:hover path { stroke: red; }
.edge:hover polygon { stroke: red; fill: red; }
]]></style>

<defs>
  <circle id="rim" cx="0" cy="0" r="7"/>
  <circle id="rim2" cx="0" cy="0" r="3.5"/>
  <g id="zoomPlus">
    <use xlink:href="#rim" fill="#404040"><set attributeName="fill" to="#808080" begin="zoomplus.mouseover" end="zoomplus.mouseout"/></use>
    <path d="M-4,0h8M0,-4v8" fill="none" stroke="white" stroke-width="1.5" pointer-events="none"/>
  </g>
  <g id="zoomMin">
    <use xlink:href="#rim" fill="#404040"><set attributeName="fill" to="#808080" begin="zoomminus.mouseover" end="zoomminus.mouseout"/></use>
    <path d="M-4,0h8" fill="none" stroke="white" stroke-width="1.5" pointer-events="none"/>
  </g>
  <g id="arrowUp" transform="translate(30 24)">
    <use xlink:href="#rim"/>
    <path pointer-events="none" fill="none" stroke="white" stroke-width="1.5" d="M0,-3.0v7 M-2.5,-0.5L0,-3.0L2.5,-0.5"/>
  </g>
  <g id="arrowRight" transform="rotate(90) translate(36 -43)">
    <use xlink:href="#rim"/>
    <path pointer-events="none" fill="none" stroke="white" stroke-width="1.5" d="M0,-3.0v7 M-2.5,-0.5L0,-3.0L2.5,-0.5"/>
  </g>
  <g id="arrowDown" transform="rotate(180) translate(-30 -48)">
    <use xlink:href="#rim"/>
    <path pointer-events="none" fill="none" stroke="white" stroke-width="1.5" d="M0,-3.0v7 M-2.5,-0.5L0,-3.0L2.5,-0.5"/>
  </g>
  <g id="arrowLeft" transform="rotate(270) translate(-36 17)">
    <use xlink:href="#rim"/>
    <path pointer-events="none" fill="none" stroke="white" stroke-width="1.5" d="M0,-3.0v7 M-2.5,-0.5L0,-3.0L2.5,-0.5"/>
  </g>
  <g id="resetDef">
    <use xlink:href="#rim2" fill="#404040"><set attributeName="fill" to="#808080" begin="reset.mouseover" end="reset.mouseout"/></use>
  </g>
</defs>
<script type="application/ecmascript">
var viewWidth = 1864;
var viewHeight = 128;
var sectionId = 'dynsection-0';
</script>
<script type="application/ecmascript" xlink:href="../../svg.min.js"/>
<svg id="graph" class="graph">
<g id="viewport">
<title>/Users/jim/work/xvm/javatools/src/main/java/org/xvm/asm/op/GP_Sub.java</title>
<!-- Node1 -->
<g id="Node000001" class="node">
<title>Node1</title>
<g id="a_Node000001"><a xlink:title=" ">
<polygon fill="#999999" stroke="#666666" points="903.38,-119.5 792.88,-119.5 792.88,-66.5 903.38,-66.5 903.38,-119.5"/>
<text xml:space="preserve" text-anchor="start" x="800.88" y="-106" font-family="Helvetica,sans-Serif" font-size="10.00">/Users/jim/work/xvm</text>
<text xml:space="preserve" text-anchor="start" x="800.88" y="-94.75" font-family="Helvetica,sans-Serif" font-size="10.00">/javatools/src/main</text>
<text xml:space="preserve" text-anchor="start" x="800.88" y="-83.5" font-family="Helvetica,sans-Serif" font-size="10.00">/java/org/xvm/asm/op</text>
<text xml:space="preserve" text-anchor="middle" x="848.12" y="-72.25" font-family="Helvetica,sans-Serif" font-size="10.00">/GP_Sub.java</text>
</a>
</g>
</g>
<!-- Node2 -->
<g id="Node000002" class="node">
<title>Node2</title>
<g id="a_Node000002"><a xlink:title=" ">
<polygon fill="#e0e0e0" stroke="#999999" points="90.25,-24.88 0,-24.88 0,-5.63 90.25,-5.63 90.25,-24.88"/>
<text xml:space="preserve" text-anchor="middle" x="45.12" y="-11.38" font-family="Helvetica,sans-Serif" font-size="10.00">java.io.DataInput</text>
</a>
</g>
</g>
<!-- Node1&#45;&gt;Node2 -->
<g id="edge1_Node000001_Node000002" class="edge">
<title>Node1&#45;&gt;Node2</title>
<g id="a_edge1_Node000001_Node000002"><a xlink:title=" ">
<path fill="none" stroke="#63b8ff" d="M792.74,-90.78C668.02,-87.32 355.99,-74.58 99.12,-30.5 95.06,-29.8 90.86,-28.94 86.68,-28"/>
<polygon fill="#63b8ff" stroke="#63b8ff" points="87.78,-24.66 77.23,-25.69 86.12,-31.46 87.78,-24.66"/>
</a>
</g>
</g>
<!-- Node3 -->
<g id="Node000003" class="node">
<title>Node3</title>
<g id="a_Node000003"><a xlink:title=" ">
<polygon fill="#e0e0e0" stroke="#999999" points="209.88,-24.88 108.38,-24.88 108.38,-5.63 209.88,-5.63 209.88,-24.88"/>
<text xml:space="preserve" text-anchor="middle" x="159.12" y="-11.38" font-family="Helvetica,sans-Serif" font-size="10.00">java.io.IOException</text>
</a>
</g>
</g>
<!-- Node1&#45;&gt;Node3 -->
<g id="edge2_Node000001_Node000003" class="edge">
<title>Node1&#45;&gt;Node3</title>
<g id="a_edge2_Node000001_Node000003"><a xlink:title=" ">
<path fill="none" stroke="#63b8ff" d="M792.68,-89.11C682.7,-82.83 429.35,-65.58 219.12,-30.5 214.49,-29.73 209.68,-28.8 204.9,-27.8"/>
<polygon fill="#63b8ff" stroke="#63b8ff" points="205.86,-24.42 195.34,-25.67 204.34,-31.26 205.86,-24.42"/>
</a>
</g>
</g>
<!-- Node4 -->
<g id="Node000004" class="node">
<title>Node4</title>
<g id="a_Node000004"><a xlink:title=" ">
<polygon fill="#e0e0e0" stroke="#999999" points="348.25,-30.5 228,-30.5 228,0 348.25,0 348.25,-30.5"/>
<text xml:space="preserve" text-anchor="start" x="236" y="-17" font-family="Helvetica,sans-Serif" font-size="10.00">java.lang.classfile.Code</text>
<text xml:space="preserve" text-anchor="middle" x="288.12" y="-5.75" font-family="Helvetica,sans-Serif" font-size="10.00">Builder</text>
</a>
</g>
</g>
<!-- Node1&#45;&gt;Node4 -->
<g id="edge3_Node000001_Node000004" class="edge">
<title>Node1&#45;&gt;Node4</title>
<g id="a_edge3_Node000001_Node000004"><a xlink:title=" ">
<path fill="none" stroke="#63b8ff" d="M792.69,-86.5C703.57,-77.34 522.7,-57.46 359.85,-30.88"/>
<polygon fill="#63b8ff" stroke="#63b8ff" points="360.59,-27.45 350.15,-29.28 359.45,-34.36 360.59,-27.45"/>
</a>
</g>
</g>
<!-- Node5 -->
<g id="Node000005" class="node">
<title>Node5</title>
<g id="a_Node000005"><a xlink:title=" ">
<polygon fill="#e0e0e0" stroke="#999999" points="484.12,-24.88 366.12,-24.88 366.12,-5.63 484.12,-5.63 484.12,-24.88"/>
<text xml:space="preserve" text-anchor="middle" x="425.12" y="-11.38" font-family="Helvetica,sans-Serif" font-size="10.00">org.xvm.asm.Argument</text>
</a>
</g>
</g>
<!-- Node1&#45;&gt;Node5 -->
<g id="edge4_Node000001_Node000005" class="edge">
<title>Node1&#45;&gt;Node5</title>
<g id="a_edge4_Node000001_Node000005"><a xlink:title=" ">
<path fill="none" stroke="#63b8ff" d="M792.67,-83.01C722.72,-71.53 598.79,-50.72 493.12,-30.5 488.46,-29.61 483.62,-28.65 478.77,-27.68"/>
<polygon fill="#63b8ff" stroke="#63b8ff" points="479.5,-24.25 469,-25.68 478.1,-31.11 479.5,-24.25"/>
</a>
</g>
</g>
<!-- Node6 -->
<g id="Node000006" class="node">
<title>Node6</title>
<g id="a_Node000006"><a xlink:title=" ">
<polygon fill="#e0e0e0" stroke="#999999" points="618,-24.88 502.25,-24.88 502.25,-5.63 618,-5.63 618,-24.88"/>
<text xml:space="preserve" text-anchor="middle" x="560.12" y="-11.38" font-family="Helvetica,sans-Serif" font-size="10.00">org.xvm.asm.Constant</text>
</a>
</g>
</g>
<!-- Node1&#45;&gt;Node6 -->
<g id="edge5_Node000001_Node000006" class="edge">
<title>Node1&#45;&gt;Node6</title>
<g id="a_edge5_Node000001_Node000006"><a xlink:title=" ">
<path fill="none" stroke="#63b8ff" d="M792.6,-77.39C738.19,-63.09 656.28,-41.54 605.62,-28.22"/>
<polygon fill="#63b8ff" stroke="#63b8ff" points="606.71,-24.88 596.15,-25.73 604.93,-31.65 606.71,-24.88"/>
</a>
</g>
</g>
<!-- Node7 -->
<g id="Node000007" class="node">
<title>Node7</title>
<g id="a_Node000007"><a xlink:title=" ">
<polygon fill="#e0e0e0" stroke="#999999" points="758.38,-24.88 635.88,-24.88 635.88,-5.63 758.38,-5.63 758.38,-24.88"/>
<text xml:space="preserve" text-anchor="middle" x="697.12" y="-11.38" font-family="Helvetica,sans-Serif" font-size="10.00">org.xvm.asm.OpGeneral</text>
</a>
</g>
</g>
<!-- Node1&#45;&gt;Node7 -->
<g id="edge6_Node000001_Node000007" class="edge">
<title>Node1&#45;&gt;Node7</title>
<g id="a_edge6_Node000001_Node000007"><a xlink:title=" ">
<path fill="none" stroke="#63b8ff" d="M796.58,-66.14C772.79,-54.21 745.46,-40.5 725.48,-30.48"/>
<polygon fill="#63b8ff" stroke="#63b8ff" points="727.06,-27.35 716.56,-26 723.93,-33.61 727.06,-27.35"/>
</a>
</g>
</g>
<!-- Node8 -->
<g id="Node000008" class="node">
<title>Node8</title>
<g id="a_Node000008"><a xlink:title=" ">
<polygon fill="#e0e0e0" stroke="#999999" points="919.5,-30.5 776.75,-30.5 776.75,0 919.5,0 919.5,-30.5"/>
<text xml:space="preserve" text-anchor="start" x="784.75" y="-17" font-family="Helvetica,sans-Serif" font-size="10.00">org.xvm.asm.constants.Type</text>
<text xml:space="preserve" text-anchor="middle" x="848.12" y="-5.75" font-family="Helvetica,sans-Serif" font-size="10.00">Constant</text>
</a>
</g>
</g>
<!-- Node1&#45;&gt;Node8 -->
<g id="edge7_Node000001_Node000008" class="edge">
<title>Node1&#45;&gt;Node8</title>
<g id="a_edge7_Node000001_Node000008"><a xlink:title=" ">
<path fill="none" stroke="#63b8ff" d="M848.12,-66.35C848.12,-58.58 848.12,-50.04 848.12,-42.24"/>
<polygon fill="#63b8ff" stroke="#63b8ff" points="851.63,-42.34 848.13,-32.34 844.63,-42.34 851.63,-42.34"/>
</a>
</g>
</g>
<!-- Node9 -->
<g id="Node000009" class="node">
<title>Node9</title>
<g id="a_Node000009"><a xlink:title=" ">
<polygon fill="#e0e0e0" stroke="#999999" points="1076.62,-24.88 937.62,-24.88 937.62,-5.63 1076.62,-5.63 1076.62,-24.88"/>
<text xml:space="preserve" text-anchor="middle" x="1007.12" y="-11.38" font-family="Helvetica,sans-Serif" font-size="10.00">org.xvm.javajit.BuildContext</text>
</a>
</g>
</g>
<!-- Node1&#45;&gt;Node9 -->
<g id="edge8_Node000001_Node000009" class="edge">
<title>Node1&#45;&gt;Node9</title>
<g id="a_edge8_Node000001_Node000009"><a xlink:title=" ">
<path fill="none" stroke="#63b8ff" d="M902.4,-66.14C927.68,-54.1 956.76,-40.25 977.85,-30.2"/>
<polygon fill="#63b8ff" stroke="#63b8ff" points="979.2,-33.43 986.72,-25.97 976.19,-27.11 979.2,-33.43"/>
</a>
</g>
</g>
<!-- Node10 -->
<g id="Node000010" class="node">
<title>Node10</title>
<g id="a_Node000010"><a xlink:title=" ">
<polygon fill="#e0e0e0" stroke="#999999" points="1245.62,-24.88 1094.62,-24.88 1094.62,-5.63 1245.62,-5.63 1245.62,-24.88"/>
<text xml:space="preserve" text-anchor="middle" x="1170.12" y="-11.38" font-family="Helvetica,sans-Serif" font-size="10.00">org.xvm.javajit.NumberSupport</text>
</a>
</g>
</g>
<!-- Node1&#45;&gt;Node10 -->
<g id="edge9_Node000001_Node000010" class="edge">
<title>Node1&#45;&gt;Node10</title>
<g id="a_edge9_Node000001_Node000010"><a xlink:title=" ">
<path fill="none" stroke="#63b8ff" d="M903.85,-78.89C964.93,-64.52 1062.03,-41.68 1120.56,-27.91"/>
<polygon fill="#63b8ff" stroke="#63b8ff" points="1121.32,-31.33 1130.26,-25.63 1119.72,-24.51 1121.32,-31.33"/>
</a>
</g>
</g>
<!-- Node11 -->
<g id="Node000011" class="node">
<title>Node11</title>
<g id="a_Node000011"><a xlink:title=" ">
<polygon fill="#e0e0e0" stroke="#999999" points="1400.12,-24.88 1264.12,-24.88 1264.12,-5.63 1400.12,-5.63 1400.12,-24.88"/>
<text xml:space="preserve" text-anchor="middle" x="1332.12" y="-11.38" font-family="Helvetica,sans-Serif" font-size="10.00">org.xvm.javajit.RegisterInfo</text>
</a>
</g>
</g>
<!-- Node1&#45;&gt;Node11 -->
<g id="edge10_Node000001_Node000011" class="edge">
<title>Node1&#45;&gt;Node11</title>
<g id="a_edge10_Node000001_Node000011"><a xlink:title=" ">
<path fill="none" stroke="#63b8ff" d="M903.85,-84.17C982.33,-73.02 1129.86,-51.55 1255.12,-30.5 1261.07,-29.5 1267.27,-28.42 1273.46,-27.31"/>
<polygon fill="#63b8ff" stroke="#63b8ff" points="1273.81,-30.81 1283.03,-25.58 1272.57,-23.92 1273.81,-30.81"/>
</a>
</g>
</g>
<!-- Node12 -->
<g id="Node000012" class="node">
<title>Node12</title>
<g id="a_Node000012"><a xlink:title=" ">
<polygon fill="#e0e0e0" stroke="#999999" points="1553.75,-24.88 1418.5,-24.88 1418.5,-5.63 1553.75,-5.63 1553.75,-24.88"/>
<text xml:space="preserve" text-anchor="middle" x="1486.12" y="-11.38" font-family="Helvetica,sans-Serif" font-size="10.00">org.xvm.javajit.TextSupport</text>
</a>
</g>
</g>
<!-- Node1&#45;&gt;Node12 -->
<g id="edge11_Node000001_Node000012" class="edge">
<title>Node1&#45;&gt;Node12</title>
<g id="a_edge11_Node000001_Node000012"><a xlink:title=" ">
<path fill="none" stroke="#63b8ff" d="M903.64,-87.28C1004.56,-78.4 1224.71,-57.64 1409.12,-30.5 1415.59,-29.55 1422.34,-28.45 1429.04,-27.3"/>
<polygon fill="#63b8ff" stroke="#63b8ff" points="1429.48,-30.78 1438.72,-25.59 1428.26,-23.88 1429.48,-30.78"/>
</a>
</g>
</g>
<!-- Node13 -->
<g id="Node000013" class="node">
<title>Node13</title>
<g id="a_Node000013"><a xlink:title=" ">
<polygon fill="#e0e0e0" stroke="#999999" points="1688.75,-24.88 1571.5,-24.88 1571.5,-5.63 1688.75,-5.63 1688.75,-24.88"/>
<text xml:space="preserve" text-anchor="middle" x="1630.12" y="-11.38" font-family="Helvetica,sans-Serif" font-size="10.00">org.xvm.runtime.Frame</text>
</a>
</g>
</g>
<!-- Node1&#45;&gt;Node13 -->
<g id="edge12_Node000001_Node000013" class="edge">
<title>Node1&#45;&gt;Node13</title>
<g id="a_edge12_Node000001_Node000013"><a xlink:title=" ">
<path fill="none" stroke="#63b8ff" d="M903.57,-89.57C1024.1,-83.78 1318.81,-66.85 1563.12,-30.5 1568.72,-29.67 1574.54,-28.65 1580.32,-27.55"/>
<polygon fill="#63b8ff" stroke="#63b8ff" points="1580.7,-31.05 1589.82,-25.65 1579.33,-24.18 1580.7,-31.05"/>
</a>
</g>
</g>
<!-- Node14 -->
<g id="Node000014" class="node">
<title>Node14</title>
<g id="a_Node000014"><a xlink:title=" ">
<polygon fill="#e0e0e0" stroke="#999999" points="1855.5,-24.88 1706.75,-24.88 1706.75,-5.63 1855.5,-5.63 1855.5,-24.88"/>
<text xml:space="preserve" text-anchor="middle" x="1781.12" y="-11.38" font-family="Helvetica,sans-Serif" font-size="10.00">org.xvm.runtime.ObjectHandle</text>
</a>
</g>
</g>
<!-- Node1&#45;&gt;Node14 -->
<g id="edge13_Node000001_Node000014" class="edge">
<title>Node1&#45;&gt;Node14</title>
<g id="a_edge13_Node000001_Node000014"><a xlink:title=" ">
<path fill="none" stroke="#63b8ff" d="M903.75,-89.86C1039.75,-84.22 1399.79,-66.81 1698.12,-30.5 1705.82,-29.56 1713.89,-28.4 1721.84,-27.15"/>
<polygon fill="#63b8ff" stroke="#63b8ff" points="1722.16,-30.65 1731.47,-25.58 1721.04,-23.74 1722.16,-30.65"/>
</a>
</g>
</g>
</g>
</svg>

<g id="navigator" transform="translate(0 0)" fill="#404254">
  <rect fill="#f2f5e9" fill-opacity="0.5" stroke="#606060" stroke-width=".5" x="0" y="0" width="60" height="60"/>
  <use id="zoomplus" xlink:href="#zoomPlus" x="17" y="9" onmousedown="handleZoom(evt,'in')"/>
  <use id="zoomminus" xlink:href="#zoomMin" x="42" y="9" onmousedown="handleZoom(evt,'out')"/>
  <use id="reset" xlink:href="#resetDef" x="30" y="36" onmousedown="handleReset()"/>
   <use id="arrowup" xlink:href="#arrowUp" x="0" y="0" onmousedown="handlePan(0,-1)"/>
  <use id="arrowright" xlink:href="#arrowRight" x="0" y="0" onmousedown="handlePan(1,0)"/>
  <use id="arrowdown" xlink:href="#arrowDown" x="0" y="0" onmousedown="handlePan(0,1)"/>
  <use id="arrowleft" xlink:href="#arrowLeft" x="0" y="0" onmousedown="handlePan(-1,0)"/>
</g>
<svg viewBox="0 0 15 15" width="100%" height="30px" preserveAspectRatio="xMaxYMin meet">
 <g id="arrow_out" transform="scale(0.3 0.3)">
  <a xlink:href="_g_p___sub_8java__incl_org.svg" target="_base">
   <rect id="button" ry="5" rx="5" y="6" x="6" height="38" width="38"
        fill="#f2f5e9" fill-opacity="0.5" stroke="#606060" stroke-width="1.0"/>
   <path id="arrow"
     d="M 11.500037,31.436501 C 11.940474,20.09759 22.043105,11.32322 32.158766,21.979434 L 37.068811,17.246167 C 37.068811,17.246167 37.088388,32 37.088388,32 L 22.160133,31.978069 C 22.160133,31.978069 26.997745,27.140456 26.997745,27.140456 C 18.528582,18.264221 13.291696,25.230495 11.500037,31.436501 z"
     style="fill:#404040;"/>
  </a>
 </g>
</svg>

<style type='text/css'>
<![CDATA[
[data-mouse-over-selected='false'] { opacity: 0.7; }
[data-mouse-over-selected='true']  { opacity: 1.0; }
]]>
</style>
<script type="application/ecmascript"><![CDATA[
document.addEventListener('DOMContentLoaded', (event) => {
  highlightEdges();
  highlightAdjacentNodes();
});
]]></script>
</svg>
