<?xml version="1.0" encoding="UTF-8" standalone="no"?>
<!DOCTYPE svg PUBLIC "-//W3C//DTD SVG 1.1//EN"
 "http://www.w3.org/Graphics/SVG/1.1/DTD/svg11.dtd">
<!-- Generated by graphviz version 14.1.3 (20260303.0454)
 -->
<!-- Title: org.xtclang.plugin.XtcPluginUtils.FileUtils.isValidJavaToolsArtifact Pages: 1 -->
<svg width="755pt" height="106pt"
 viewBox="0.00 0.00 755.00 106.00" xmlns="http://www.w3.org/2000/svg" xmlns:xlink="http://www.w3.org/1999/xlink">
<g id="page0,1_graph0" class="graph" transform="scale(1 1) rotate(0) translate(4 101.5)">
<title>org.xtclang.plugin.XtcPluginUtils.FileUtils.isValidJavaToolsArtifact</title>
<!-- Node1 -->
<g id="Node000001" class="node">
<title>Node1</title>
<g id="a_Node000001"><a xlink:title="Check that a file is a valid JavaTools artifact.">
<polygon fill="#999999" stroke="#666666" points="151,-69.12 0,-69.12 0,-27.38 151,-27.38 151,-69.12"/>
<text xml:space="preserve" text-anchor="start" x="8" y="-55.62" font-family="Helvetica,sans-Serif" font-size="10.00">org.xtclang.plugin.XtcPlugin</text>
<text xml:space="preserve" text-anchor="start" x="8" y="-44.38" font-family="Helvetica,sans-Serif" font-size="10.00">Utils.FileUtils.isValidJavaTools</text>
<text xml:space="preserve" text-anchor="middle" x="75.5" y="-33.12" font-family="Helvetica,sans-Serif" font-size="10.00">Artifact</text>
</a>
</g>
</g>
<!-- Node2 -->
<g id="Node000002" class="node">
<title>Node2</title>
<g id="a_Node000002"><a xlink:href="../../d8/d80/classorg_1_1xtclang_1_1plugin_1_1_xtc_plugin_utils_1_1_file_utils.html#ac59d6a1a3be93bbf340df46a5341f4e6" target="_top" xlink:title=" ">
<polygon fill="white" stroke="#666666" points="354.12,-92.5 203.12,-92.5 203.12,-62 354.12,-62 354.12,-92.5"/>
<text xml:space="preserve" text-anchor="start" x="211.12" y="-79" font-family="Helvetica,sans-Serif" font-size="10.00">org.xtclang.plugin.XtcPlugin</text>
<text xml:space="preserve" text-anchor="middle" x="278.62" y="-67.75" font-family="Helvetica,sans-Serif" font-size="10.00">Utils.FileUtils.hasJarExtension</text>
</a>
</g>
</g>
<!-- Node1&#45;&gt;Node2 -->
<g id="edge1_Node000001_Node000002" class="edge">
<title>Node1&#45;&gt;Node2</title>
<g id="a_edge1_Node000001_Node000002"><a xlink:title=" ">
<path fill="none" stroke="#63b8ff" d="M151.39,-59.05C164.48,-60.94 178.19,-62.91 191.55,-64.84"/>
<polygon fill="#63b8ff" stroke="#63b8ff" points="190.78,-68.26 201.17,-66.23 191.77,-61.34 190.78,-68.26"/>
</a>
</g>
</g>
<!-- Node5 -->
<g id="Node000005" class="node">
<title>Node5</title>
<g id="a_Node000005"><a xlink:href="../../d8/d80/classorg_1_1xtclang_1_1plugin_1_1_xtc_plugin_utils_1_1_file_utils.html#ae7928424263094b8da2f255b16f0d442" target="_top" xlink:title="Reads the XDK version from a jar manifest.">
<polygon fill="white" stroke="#666666" points="370.25,-39.5 187,-39.5 187,-9 370.25,-9 370.25,-39.5"/>
<text xml:space="preserve" text-anchor="start" x="195" y="-26" font-family="Helvetica,sans-Serif" font-size="10.00">org.xtclang.plugin.XtcPlugin</text>
<text xml:space="preserve" text-anchor="middle" x="278.62" y="-14.75" font-family="Helvetica,sans-Serif" font-size="10.00">Utils.FileUtils.readXdkVersionFromJar</text>
</a>
</g>
</g>
<!-- Node1&#45;&gt;Node5 -->
<g id="edge4_Node000001_Node000005" class="edge">
<title>Node1&#45;&gt;Node5</title>
<g id="a_edge4_Node000001_Node000005"><a xlink:title=" ">
<path fill="none" stroke="#63b8ff" d="M151.39,-39.31C159.21,-38.38 167.25,-37.42 175.31,-36.46"/>
<polygon fill="#63b8ff" stroke="#63b8ff" points="175.67,-39.94 185.18,-35.28 174.84,-32.99 175.67,-39.94"/>
</a>
</g>
</g>
<!-- Node3 -->
<g id="Node000003" class="node">
<title>Node3</title>
<g id="a_Node000003"><a xlink:href="../../d8/d80/classorg_1_1xtclang_1_1plugin_1_1_xtc_plugin_utils_1_1_file_utils.html#a5ed1b31ef10ddd5530b834b702ca0a8f" target="_top" xlink:title=" ">
<polygon fill="white" stroke="#666666" points="559.5,-97.5 406.25,-97.5 406.25,-67 559.5,-67 559.5,-97.5"/>
<text xml:space="preserve" text-anchor="start" x="414.25" y="-84" font-family="Helvetica,sans-Serif" font-size="10.00">org.xtclang.plugin.XtcPlugin</text>
<text xml:space="preserve" text-anchor="middle" x="482.88" y="-72.75" font-family="Helvetica,sans-Serif" font-size="10.00">Utils.FileUtils.hasFileExtension</text>
</a>
</g>
</g>
<!-- Node2&#45;&gt;Node3 -->
<g id="edge2_Node000002_Node000003" class="edge">
<title>Node2&#45;&gt;Node3</title>
<g id="a_edge2_Node000002_Node000003"><a xlink:title=" ">
<path fill="none" stroke="#63b8ff" d="M354.36,-79.1C367.46,-79.42 381.19,-79.76 394.6,-80.09"/>
<polygon fill="#63b8ff" stroke="#63b8ff" points="394.16,-83.58 404.24,-80.33 394.33,-76.58 394.16,-83.58"/>
</a>
</g>
</g>
<!-- Node4 -->
<g id="Node000004" class="node">
<title>Node4</title>
<g id="a_Node000004"><a xlink:href="../../d8/d80/classorg_1_1xtclang_1_1plugin_1_1_xtc_plugin_utils_1_1_file_utils.html#a9c7210e12ded1f9b6bea85e7e066da2f" target="_top" xlink:title=" ">
<polygon fill="white" stroke="#666666" points="746.5,-97.5 595.5,-97.5 595.5,-67 746.5,-67 746.5,-97.5"/>
<text xml:space="preserve" text-anchor="start" x="603.5" y="-84" font-family="Helvetica,sans-Serif" font-size="10.00">org.xtclang.plugin.XtcPlugin</text>
<text xml:space="preserve" text-anchor="middle" x="671" y="-72.75" font-family="Helvetica,sans-Serif" font-size="10.00">Utils.FileUtils.getFileExtension</text>
</a>
</g>
</g>
<!-- Node3&#45;&gt;Node4 -->
<g id="edge3_Node000003_Node000004" class="edge">
<title>Node3&#45;&gt;Node4</title>
<g id="a_edge3_Node000003_Node000004"><a xlink:title=" ">
<path fill="none" stroke="#63b8ff" d="M559.85,-82.25C567.77,-82.25 575.87,-82.25 583.9,-82.25"/>
<polygon fill="#63b8ff" stroke="#63b8ff" points="583.66,-85.75 593.66,-82.25 583.66,-78.75 583.66,-85.75"/>
</a>
</g>
</g>
<!-- Node6 -->
<g id="Node000006" class="node">
<title>Node6</title>
<g id="a_Node000006"><a xlink:href="../../d7/d0c/classorg_1_1xtclang_1_1plugin_1_1_xtc_plugin_utils.html#a98f0687638e57c53f3730040f4ca71ab" target="_top" xlink:title="Create a GradleException with a formatted message using {} placeholders.">
<polygon fill="white" stroke="#666666" points="551.62,-30.5 414.12,-30.5 414.12,0 551.62,0 551.62,-30.5"/>
<text xml:space="preserve" text-anchor="start" x="422.12" y="-17" font-family="Helvetica,sans-Serif" font-size="10.00">org.xtclang.plugin.XtcPlugin</text>
<text xml:space="preserve" text-anchor="middle" x="482.88" y="-5.75" font-family="Helvetica,sans-Serif" font-size="10.00">Utils.failure</text>
</a>
</g>
</g>
<!-- Node5&#45;&gt;Node6 -->
<g id="edge5_Node000005_Node000006" class="edge">
<title>Node5&#45;&gt;Node6</title>
<g id="a_edge5_Node000005_Node000006"><a xlink:title=" ">
<path fill="none" stroke="#63b8ff" d="M370.69,-20.2C381.32,-19.72 392.09,-19.25 402.54,-18.78"/>
<polygon fill="#63b8ff" stroke="#63b8ff" points="402.38,-22.29 412.22,-18.35 402.07,-15.3 402.38,-22.29"/>
</a>
</g>
</g>
<!-- Node6&#45;&gt;Node6 -->
<g id="edge6_Node000006_Node000006" class="edge">
<title>Node6&#45;&gt;Node6</title>
<g id="a_edge6_Node000006_Node000006"><a xlink:title=" ">
<path fill="none" stroke="#63b8ff" d="M449.54,-30.99C442.74,-40.06 453.85,-48.5 482.88,-48.5 498.75,-48.5 509.27,-45.97 514.42,-42.2"/>
<polygon fill="#63b8ff" stroke="#63b8ff" points="517.86,-42.91 515.97,-32.48 510.94,-41.81 517.86,-42.91"/>
</a>
</g>
</g>
</g>
</svg>
